<?xml version="1.0" encoding="utf-8"?>
<!-- Generator: Adobe Illustrator 21.0.0, SVG Export Plug-In . SVG Version: 6.00 Build 0)  -->
<svg version="1.1" xmlns="http://www.w3.org/2000/svg" xmlns:xlink="http://www.w3.org/1999/xlink" x="0px" y="0px"
	 viewBox="0 0 800 800" style="enable-background:new 0 0 800 800;" xml:space="preserve">
<style type="text/css">
	.st0{display:none;}
	.st1{display:inline;}
	.st2{fill:#FFFFFF;}
	.st3{stroke:#FFFFFF;stroke-miterlimit:10;}
</style>
<g id="_x38_PM" class="st0">
	<g>
		<g class="st1">
			<rect x="78.8" y="400" class="st2" width="18.5" height="12"/>
		</g>
		<g class="st1">
			<polygon class="st2" points="104.8,273.9 120.4,282.3 126,271 110.4,262.7 			"/>
		</g>
		<g class="st1">
			
				<rect x="112.5" y="534.3" transform="matrix(0.8877 -0.4604 0.4604 0.8877 -235.143 116.6529)" class="st2" width="18.2" height="12.2"/>
		</g>
		<g class="st1">
			<path class="st2" d="M400,721.8c-43.4,0-85.6-8.5-125.3-25.3c-38.3-16.2-72.7-39.4-102.3-69c-29.6-29.6-52.8-64-69-102.3
				C86.7,485.6,78.2,443.4,78.2,400s8.5-85.6,25.3-125.3c16.2-38.3,39.4-72.7,69-102.3s64-52.8,102.3-69
				c39.7-16.8,81.8-25.3,125.3-25.3s85.6,8.5,125.3,25.3c38.3,16.2,72.7,39.4,102.3,69c29.6,29.6,52.8,64,69,102.3
				c16.8,39.7,25.3,81.8,25.3,125.3s-8.5,85.6-25.3,125.3c-16.2,38.3-39.4,72.7-69,102.3c-29.6,29.6-64,52.8-102.3,69
				C485.6,713.3,443.4,721.8,400,721.8z M400,79.6c-43.3,0-85.2,8.5-124.7,25.2c-38.2,16.1-72.4,39.2-101.8,68.7
				c-29.4,29.4-52.5,63.7-68.7,101.8C88.1,314.8,79.6,356.7,79.6,400s8.5,85.2,25.2,124.7c16.1,38.2,39.2,72.4,68.7,101.8
				c29.4,29.4,63.7,52.5,101.8,68.7c39.5,16.7,81.5,25.2,124.7,25.2s85.2-8.5,124.7-25.2c38.2-16.1,72.4-39.2,101.8-68.7
				c29.4-29.4,52.5-63.7,68.7-101.8c16.7-39.5,25.2-81.5,25.2-124.7s-8.5-85.2-25.2-124.7c-16.1-38.2-39.2-72.4-68.7-101.8
				c-29.4-29.4-63.7-52.5-101.8-68.7C485.2,88.1,443.3,79.6,400,79.6z"/>
		</g>
		<g class="st1">
			<path class="st2" d="M400,703.4c-81,0-157.2-31.6-214.5-88.9C128.1,557.2,96.6,481,96.6,400s31.6-157.2,88.9-214.5
				C242.8,128.1,319,96.6,400,96.6s157.2,31.6,214.5,88.9c57.3,57.3,88.9,133.5,88.9,214.5s-31.6,157.2-88.9,214.5
				C557.2,671.9,481,703.4,400,703.4z M400,98c-80.7,0-156.5,31.4-213.5,88.5C129.4,243.5,98,319.3,98,400s31.4,156.5,88.5,213.5
				c57,57,132.9,88.5,213.5,88.5s156.5-31.4,213.5-88.5c57-57,88.5-132.9,88.5-213.5s-31.4-156.5-88.5-213.5
				C556.5,129.4,480.7,98,400,98z"/>
		</g>
		<g class="st1">
			<path class="st2" d="M400,608.6c-55.7,0-108.1-21.7-147.5-61.1c-39.4-39.4-61.1-91.8-61.1-147.5s21.7-108.1,61.1-147.5
				c39.4-39.4,91.8-61.1,147.5-61.1s108.1,21.7,147.5,61.1c39.4,39.4,61.1,91.8,61.1,147.5s-21.7,108.1-61.1,147.5
				C508.1,586.9,455.7,608.6,400,608.6z M400,192.8c-55.4,0-107.4,21.6-146.5,60.7c-39.1,39.1-60.7,91.2-60.7,146.5
				c0,55.4,21.6,107.4,60.7,146.5c39.1,39.1,91.2,60.7,146.5,60.7c55.4,0,107.4-21.6,146.5-60.7c39.1-39.1,60.7-91.2,60.7-146.5
				c0-55.4-21.6-107.4-60.7-146.5C507.4,214.3,455.4,192.8,400,192.8z"/>
		</g>
		<g class="st1">
			<path class="st2" d="M400,591.7c-51.2,0-99.3-19.9-135.5-56.1c-36.2-36.2-56.1-84.3-56.1-135.5c0-51.2,19.9-99.3,56.1-135.5
				c36.2-36.2,84.3-56.1,135.5-56.1c51.2,0,99.3,19.9,135.5,56.1c36.2,36.2,56.1,84.3,56.1,135.5c0,51.2-19.9,99.3-56.1,135.5
				C499.3,571.7,451.2,591.7,400,591.7z M400,209.7c-50.8,0-98.6,19.8-134.5,55.7c-35.9,35.9-55.7,83.7-55.7,134.5
				c0,50.8,19.8,98.6,55.7,134.5c35.9,35.9,83.7,55.7,134.5,55.7c50.8,0,98.6-19.8,134.5-55.7c35.9-35.9,55.7-83.7,55.7-134.5
				c0-50.8-19.8-98.6-55.7-134.5C498.6,229.5,450.8,209.7,400,209.7z"/>
		</g>
		<g class="st1">
			<g>
				<path class="st2" d="M401.3,114.3c-0.7,0.6-1.6,1.6-2.8,3.1c-0.6,1.4-2.3,5.7-4.9,13c-2.7,7.5-4.1,11.6-4.1,12.3
					c0,0.7,1.3,5.9,4,15.8c2.6,9.6,4.2,15.2,4.8,16.9c0.4,1,0.9,1.9,1.6,2.7c0.7,0.8,1.2,1.4,1.3,1.8c-0.5-0.1-1.3-0.1-2.2,0
					c-1.1,0-1.8,0-2.2,0c-2.7,0-4.7-0.2-6-0.6c0.6-1.4,0.9-2.3,0.9-2.7c0-0.4-0.9-3.9-2.8-10.4c-1.8-6.2-3-9.9-3.6-11.2h-0.1
					c-0.1,0-0.2,0.1-0.3,0.3c-0.7,1.6-2.1,5.2-4.2,10.8c-2.2,6-3.3,9.5-3.3,10.3c0,0.4,0.2,1.4,0.7,2.9c-0.3,0.1-0.7,0.1-1.2,0.1
					c-0.6,0-1.5,0-2.6-0.1c-1.2-0.1-2-0.1-2.6-0.1c1-0.1,1.8-1,2.5-2.5c0.6-1.6,2.3-6.5,5.2-14.8c3-8.7,4.6-13.3,4.6-13.6
					c0-0.8-2.1-8.2-6.4-22.2c-0.5-2.1-1.1-4.2-1.7-6.3c-0.7-2.5-1.5-4.3-2.6-5.5c2.4-0.5,4.2-0.7,5.5-0.7c-0.2,0,1.3,0.3,4.4,1
					c-0.8,0.5-1.1,1.3-1.1,2.2c0,1,0.9,4.3,2.6,10.1c1.6,5.5,2.7,8.9,3.4,10.3c0.5-0.8,1.1-2.2,1.9-4.1c0.5-1.4,1.5-4.2,3-8.3
					c1.7-4.8,2.5-7.4,2.5-8c0-0.5-0.5-1.3-1.6-2.3c1.6-0.6,2.9-0.9,4-0.9C398.4,113.6,399.5,113.8,401.3,114.3z"/>
			</g>
			<g>
				<path class="st2" d="M414.6,179.5c-0.6,0.1-1.3,0.2-2,0.2c-0.6,0-3.6-0.3-8.8-0.8c0.4-0.5,1.1-1.4,2-2.6c0-0.4,0-0.9,0-1.4
					c0-0.8,0-2-0.1-3.5c-0.1-1.6-0.1-2.8-0.1-3.5c0-0.8,0.1-1.9,0.2-3.4c0.2-1.5,0.2-2.6,0.2-3.4v-40.5c0-1.1-0.2-2.3-0.6-3.8
					c-0.5-1.7-1.1-2.6-1.7-2.7c3.9-0.5,6.4-0.8,7.5-0.8c0.6,0,1.6,0.2,2.8,0.7c-0.1,0.3-0.5,1-1.2,2.1c-0.5,0.8-0.8,1.5-0.8,2.2
					v53.7c0,2.2,0.2,3.8,0.5,4.8C413.1,177.1,413.8,178.1,414.6,179.5z"/>
			</g>
			<g>
				<path class="st2" d="M428.2,179.5c-0.6,0.1-1.3,0.2-2,0.2c-0.6,0-3.6-0.3-8.8-0.8c0.4-0.5,1.1-1.4,2-2.6c0-0.4,0-0.9,0-1.4
					c0-0.8,0-2-0.1-3.5c-0.1-1.6-0.1-2.8-0.1-3.5c0-0.8,0.1-1.9,0.2-3.4c0.2-1.5,0.2-2.6,0.2-3.4v-40.5c0-1.1-0.2-2.3-0.6-3.8
					c-0.5-1.7-1.1-2.6-1.7-2.7c3.9-0.5,6.4-0.8,7.5-0.8c0.6,0,1.6,0.2,2.8,0.7c-0.1,0.3-0.5,1-1.2,2.1c-0.5,0.8-0.8,1.5-0.8,2.2
					v53.7c0,2.2,0.2,3.8,0.5,4.8C426.7,177.1,427.4,178.1,428.2,179.5z"/>
			</g>
		</g>
		<g class="st1">
			<g>
				<path class="st2" d="M622.3,392.3c-0.1-0.6-0.2-1.3-0.2-2c0-0.6,0.3-3.6,0.8-8.8c0.5,0.4,1.4,1.1,2.6,2c0.4,0,0.9,0,1.4,0
					c0.8,0,2,0,3.5-0.1c1.6-0.1,2.8-0.1,3.5-0.1c0.8,0,1.9,0.1,3.4,0.2c1.5,0.2,2.6,0.2,3.4,0.2h40.5c1.1,0,2.3-0.2,3.8-0.6
					c1.7-0.5,2.6-1.1,2.7-1.7c0.5,3.9,0.8,6.4,0.8,7.5c0,0.6-0.2,1.6-0.7,2.8c-0.3-0.1-1-0.5-2.1-1.2c-0.8-0.5-1.5-0.8-2.2-0.8
					h-53.7c-2.2,0-3.8,0.2-4.8,0.5C624.6,390.8,623.6,391.5,622.3,392.3z"/>
			</g>
			<g>
				<path class="st2" d="M622.3,405.9c-0.1-0.6-0.2-1.3-0.2-2c0-0.6,0.3-3.6,0.8-8.8c0.5,0.4,1.4,1.1,2.6,2c0.4,0,0.9,0,1.4,0
					c0.8,0,2,0,3.5-0.1c1.6-0.1,2.8-0.1,3.5-0.1c0.8,0,1.9,0.1,3.4,0.2c1.5,0.2,2.6,0.2,3.4,0.2h40.5c1.1,0,2.3-0.2,3.8-0.6
					c1.7-0.5,2.6-1.1,2.7-1.7c0.5,3.9,0.8,6.4,0.8,7.5c0,0.6-0.2,1.6-0.7,2.8c-0.3-0.1-1-0.5-2.1-1.2c-0.8-0.5-1.5-0.8-2.2-0.8
					h-53.7c-2.2,0-3.8,0.2-4.8,0.5C624.6,404.5,623.6,405.1,622.3,405.9z"/>
			</g>
			<g>
				<path class="st2" d="M622.3,419.6c-0.1-0.6-0.2-1.3-0.2-2c0-0.6,0.3-3.6,0.8-8.8c0.5,0.4,1.4,1.1,2.6,2c0.4,0,0.9,0,1.4,0
					c0.8,0,2,0,3.5-0.1c1.6-0.1,2.8-0.1,3.5-0.1c0.8,0,1.9,0.1,3.4,0.2c1.5,0.2,2.6,0.2,3.4,0.2h40.5c1.1,0,2.3-0.2,3.8-0.6
					c1.7-0.5,2.6-1.1,2.7-1.7c0.5,3.9,0.8,6.4,0.8,7.5c0,0.6-0.2,1.6-0.7,2.8c-0.3-0.1-1-0.5-2.1-1.2c-0.8-0.5-1.5-0.8-2.2-0.8
					h-53.7c-2.2,0-3.8,0.2-4.8,0.5C624.6,418.1,623.6,418.8,622.3,419.6z"/>
			</g>
		</g>
		<g class="st1">
			<g>
				<path class="st2" d="M180.6,401.9c0.1,0.6,0.2,1.3,0.2,2c0,0.6-0.3,3.6-0.8,8.8c-0.5-0.4-1.4-1.1-2.6-2c-0.4,0-0.9,0-1.4,0
					c-0.8,0-2,0-3.5,0.1c-1.6,0.1-2.8,0.1-3.5,0.1c-0.8,0-1.9-0.1-3.4-0.2c-1.5-0.2-2.6-0.2-3.4-0.2h-40.5c-1.1,0-2.3,0.2-3.8,0.6
					c-1.7,0.5-2.6,1.1-2.7,1.7c-0.5-3.9-0.8-6.4-0.8-7.5c0-0.6,0.2-1.6,0.7-2.8c0.3,0.1,1,0.5,2.1,1.2c0.8,0.5,1.5,0.8,2.2,0.8h53.7
					c2.2,0,3.8-0.2,4.8-0.5C178.2,403.4,179.2,402.7,180.6,401.9z"/>
			</g>
			<g>
				<path class="st2" d="M115.4,370.7c0.6,0.7,1.6,1.6,3.1,2.8c1.4,0.6,5.7,2.3,13,4.9c7.5,2.7,11.6,4.1,12.3,4.1
					c0.7,0,5.9-1.3,15.8-4c9.6-2.6,15.2-4.2,16.9-4.8c1-0.4,1.9-0.9,2.7-1.6c0.8-0.7,1.4-1.2,1.8-1.3c-0.1,0.5-0.1,1.3,0,2.2
					c0,1.1,0,1.8,0,2.2c0,2.7-0.2,4.7-0.6,6c-1.4-0.6-2.3-0.9-2.7-0.9c-0.4,0-3.9,0.9-10.4,2.8c-6.2,1.8-10,3-11.2,3.6v0.1
					c0,0.1,0.1,0.2,0.3,0.3c1.6,0.7,5.2,2.1,10.8,4.2c6,2.2,9.5,3.3,10.3,3.3c0.4,0,1.4-0.2,2.9-0.7c0.1,0.3,0.1,0.7,0.1,1.2
					c0,0.6,0,1.5-0.1,2.6c-0.1,1.2-0.1,2-0.1,2.6c-0.1-1-1-1.8-2.5-2.5c-1.6-0.6-6.5-2.3-14.8-5.2c-8.7-3-13.3-4.6-13.6-4.6
					c-0.8,0-8.2,2.1-22.2,6.4c-2.1,0.5-4.2,1.1-6.3,1.7c-2.5,0.7-4.3,1.5-5.5,2.6c-0.5-2.4-0.7-4.2-0.7-5.5c0,0.2,0.3-1.3,1-4.4
					c0.5,0.8,1.3,1.1,2.2,1.1c1,0,4.3-0.9,10.1-2.6c5.5-1.6,8.9-2.7,10.3-3.4c-0.8-0.5-2.2-1.1-4.1-1.9c-1.4-0.5-4.2-1.5-8.3-3
					c-4.8-1.7-7.4-2.5-8-2.5c-0.5,0-1.3,0.5-2.3,1.6c-0.6-1.6-0.9-2.9-0.9-4C114.7,373.6,114.9,372.5,115.4,370.7z"/>
			</g>
		</g>
		<g class="st1">
			<g>
				<path class="st2" d="M153.9,253.2c0.2,0.9,0.7,2.2,1.5,3.9c0.9,1.2,4,4.6,9.3,10.3c5.4,5.9,8.5,9,9,9.3
					c0.6,0.3,5.9,1.5,15.9,3.6c9.7,2.1,15.4,3.2,17.2,3.5c1,0.1,2.1,0,3.1-0.2c1.1-0.3,1.8-0.4,2.2-0.3c-0.3,0.5-0.6,1.1-1,2
					c-0.5,1-0.8,1.6-1,1.9c-1.3,2.4-2.4,4.1-3.3,5c-1-1.1-1.6-1.8-2-2c-0.4-0.2-3.9-1-10.5-2.2c-6.3-1.3-10.2-1.9-11.6-2l-0.1,0.1
					c-0.1,0.1,0,0.3,0.1,0.4c1.1,1.4,3.6,4.2,7.7,8.7c4.4,4.7,6.9,7.3,7.7,7.7c0.4,0.2,1.3,0.4,2.9,0.7c-0.1,0.3-0.2,0.7-0.5,1.1
					c-0.3,0.5-0.7,1.3-1.3,2.3c-0.6,1-1,1.8-1.3,2.3c0.4-1,0-2.1-1.1-3.3c-1.1-1.2-4.7-5.1-10.8-11.4c-6.4-6.7-9.7-10.1-10-10.3
					c-0.7-0.4-8.3-1.9-22.7-4.5c-2.1-0.5-4.2-0.9-6.3-1.4c-2.5-0.5-4.5-0.6-6-0.2c0.7-2.3,1.3-4.1,1.9-5.2c-0.1,0.2,0.9-1,2.9-3.4
					c0.1,0.9,0.6,1.6,1.5,2c0.9,0.4,4.2,1.2,10.2,2.4c5.6,1.1,9.2,1.7,10.7,1.7c-0.5-0.8-1.4-2-2.8-3.6c-1-1.1-3-3.3-6-6.5
					c-3.5-3.7-5.5-5.6-6-5.9c-0.4-0.2-1.4-0.1-2.8,0.4c0.2-1.7,0.5-3,1.1-4C151.9,255.5,152.7,254.6,153.9,253.2z"/>
			</g>
		</g>
		<g class="st1">
			<g>
				<path class="st2" d="M243.2,160.4c-0.2,0.9-0.3,2.3-0.4,4.2c0.3,1.5,1.5,6,3.5,13.4c2.1,7.7,3.4,11.9,3.7,12.4
					c0.4,0.5,4.5,4.1,12.4,10.5c7.6,6.3,12.2,10,13.7,11.1c0.8,0.6,1.8,1,2.9,1.2c1.1,0.3,1.8,0.5,2.1,0.7c-0.5,0.3-1.1,0.7-1.8,1.3
					c-0.9,0.6-1.5,1-1.8,1.2c-2.2,1.6-4,2.6-5.2,2.9c-0.3-1.5-0.6-2.4-0.9-2.7c-0.3-0.4-3-2.6-8.3-6.8c-5.1-4-8.2-6.4-9.4-7.1
					l-0.1,0.1c-0.1,0.1-0.1,0.2-0.1,0.4c0.3,1.7,1.3,5.4,2.9,11.3c1.7,6.2,2.8,9.6,3.3,10.3c0.2,0.3,1,1,2.3,1.9
					c-0.2,0.2-0.5,0.5-0.9,0.8c-0.5,0.3-1.2,0.8-2.2,1.4c-1,0.6-1.7,1.1-2.2,1.4c0.8-0.7,1-1.8,0.6-3.5c-0.4-1.6-1.8-6.6-4.3-15.1
					c-2.6-8.9-3.9-13.5-4.1-13.8c-0.5-0.7-6.5-5.5-18.1-14.5c-1.6-1.4-3.3-2.8-5-4.1c-2-1.6-3.7-2.6-5.2-3c1.7-1.8,3-3,4.1-3.8
					c-0.1,0.1,1.2-0.5,4.1-1.7c-0.3,0.9-0.2,1.7,0.4,2.5c0.6,0.8,3.2,3,7.9,6.8c4.5,3.6,7.4,5.7,8.7,6.5c-0.1-1-0.3-2.5-0.8-4.5
					c-0.4-1.4-1.1-4.3-2.3-8.6c-1.4-4.9-2.3-7.5-2.6-7.9c-0.3-0.4-1.2-0.7-2.7-1c0.9-1.4,1.9-2.4,2.8-3.1
					C240.4,161.5,241.5,161.1,243.2,160.4z"/>
			</g>
			<g>
				<path class="st2" d="M291.7,206c-0.4,0.4-0.9,0.9-1.5,1.3c-0.5,0.4-3.1,1.8-7.7,4.4c0.1-0.7,0.1-1.8,0.1-3.3
					c-0.2-0.3-0.5-0.7-0.8-1.2c-0.4-0.6-1.2-1.6-2.1-2.8c-1-1.3-1.7-2.2-2.1-2.8c-0.4-0.6-1-1.6-1.8-2.9c-0.7-1.3-1.3-2.3-1.8-2.9
					l-23.4-33.1c-0.6-0.9-1.5-1.8-2.7-2.7c-1.4-1.1-2.4-1.5-2.9-1.2c2.8-2.7,4.7-4.3,5.7-5c0.5-0.4,1.4-0.7,2.7-1
					c0.1,0.3,0.2,1.1,0.2,2.4c0,0.9,0.2,1.7,0.6,2.3l31,43.8c1.3,1.8,2.3,3,3.1,3.6C289.1,204.9,290.2,205.3,291.7,206z"/>
			</g>
		</g>
		<g class="st1">
			<g>
				<path class="st2" d="M602.4,491.8c0.2-0.6,0.4-1.2,0.8-1.9c0.3-0.5,2-3,5-7.3c0.3,0.7,0.7,1.7,1.3,3c0.4,0.2,0.8,0.4,1.3,0.7
					c0.7,0.4,1.7,0.9,3.2,1.6c1.4,0.7,2.5,1.2,3.2,1.6c0.7,0.4,1.6,1,2.9,1.8c1.2,0.9,2.2,1.5,2.9,1.8l35.5,19.5
					c0.9,0.5,2.1,0.9,3.6,1.3c1.8,0.4,2.8,0.3,3.2-0.2c-1.4,3.6-2.4,6-2.9,7c-0.3,0.5-1,1.3-2,2.1c-0.2-0.2-0.6-0.9-1.2-2.1
					c-0.4-0.8-0.9-1.4-1.6-1.8l-47-25.9c-1.9-1.1-3.4-1.7-4.4-1.9C605.1,491.6,604,491.7,602.4,491.8z"/>
			</g>
			<g>
				<path class="st2" d="M639.6,560.4c-0.6-1.3-1.2-2.3-1.9-3c-0.7-0.7-2.4-2.2-5-4.6c-2.6-2.3-6.5-5.8-11.8-10.3
					c-1.4-1.1-3.3-2.8-5.9-5.1c-0.3-0.4-0.9-1.1-1.7-2c-0.8-0.9-2-1.9-3.5-3.1c-2.7-2.2-6-5.1-9.9-8.5c-3.2-2.9-6.3-5.8-9.5-8.7
					c0.1-1.1,0.4-2.2,0.9-3.1c0.4-0.7,1.1-1.6,2.2-2.5c2.5,0.5,5.4,1.2,8.9,2.3c2.9,0.9,5.9,1.7,8.8,2.6c1.4,0.2,3.6,0.7,6.4,1.3
					c6.3,1.7,15.9,4.4,28.6,7.8c0.1,0,1.7,0.5,4.8,1.6c2,0.7,3.5,1.1,4.6,1.1c0.5,0,1-0.1,1.6-0.5c0.9-0.4,1.4-0.7,1.5-0.8l1.2,0.6
					l0,0.2c-0.2,0.3-0.5,0.7-0.9,1.2c-0.5,0.5-0.8,0.8-0.9,1.1c-0.3,0.5-0.7,1.4-1.1,2.5c-0.4,1.1-0.7,1.9-1,2.4
					c-0.2,0.3-0.6,0.6-1.3,1c-1.1-1.1-1.8-1.7-1.9-1.8c-0.2-0.1-1-0.3-2.3-0.5c-1.6-0.3-2.5-0.4-2.7-0.5c-5.6-1.4-12.7-3.4-21.5-5.8
					c-11.7-3.3-18.9-5.4-21.5-6.1c-1.6-0.4-3.4-0.7-5.4-0.8c-0.1,0.8,1.9,2.8,6,6.2c2.4,1.9,5.4,4.6,9.1,8c4.7,4.3,7.7,7,9,8.2
					c0.4,0.3,3.2,2.9,8.4,7.7c4.7,4.3,7.1,6.5,7.4,6.7c0.8,0.5,2,0.5,3.4,0.1c-0.3,1.4-0.9,2.9-1.7,4.4c-0.2,0.3-0.3,0.5-0.5,0.7
					C640.3,560.3,640,560.3,639.6,560.4z"/>
			</g>
		</g>
		<g class="st1">
			<g>
				<path class="st2" d="M534.9,656.9c0.1-1.4,0.1-2.6-0.2-3.6c-0.3-1-1-3.1-2.1-6.4c-1.1-3.3-2.9-8.2-5.4-14.7
					c-0.7-1.6-1.5-4.1-2.7-7.3c-0.1-0.5-0.3-1.4-0.6-2.5c-0.3-1.2-0.8-2.6-1.6-4.4c-1.3-3.3-2.8-7.3-4.5-12.2
					c-1.4-4.1-2.8-8.2-4.2-12.2c0.6-1,1.4-1.7,2.2-2.3c0.7-0.5,1.8-0.8,3.1-1.1c1.9,1.6,4.2,3.7,6.7,6.3c2.2,2.2,4.3,4.3,6.4,6.5
					c1.2,0.9,2.8,2.3,5,4.2c4.7,4.6,11.8,11.5,21.3,20.7c0.1,0.1,1.2,1.3,3.4,3.7c1.4,1.6,2.6,2.6,3.5,3.2c0.4,0.3,0.9,0.4,1.6,0.3
					c1,0,1.5,0,1.7,0.1l0.7,1.1l-0.1,0.1c-0.3,0.2-0.8,0.4-1.4,0.6c-0.6,0.2-1.1,0.4-1.3,0.5c-0.5,0.3-1.2,0.9-2.1,1.7
					c-0.9,0.8-1.6,1.3-2.1,1.6c-0.3,0.2-0.8,0.3-1.6,0.2c-0.5-1.6-0.7-2.4-0.8-2.5c-0.1-0.2-0.7-0.7-1.8-1.5c-1.3-1-2-1.6-2.1-1.7
					c-4.2-3.9-9.5-9.1-16-15.4c-8.7-8.6-14-13.8-15.9-15.7c-1.2-1.1-2.7-2.2-4.4-3.3c-0.4,0.6,0.3,3.4,2.3,8.3
					c1.2,2.9,2.6,6.7,4.1,11.4c2,6,3.4,9.8,3.9,11.5c0.2,0.5,1.4,4,3.6,10.8c2,6,3.1,9.1,3.3,9.4c0.5,0.8,1.5,1.4,3,1.7
					c-0.9,1.1-2.1,2.1-3.6,3c-0.3,0.2-0.5,0.3-0.8,0.4C535.6,657.1,535.4,657,534.9,656.9z"/>
			</g>
		</g>
		<g class="st1">
			<g>
				<path class="st2" d="M188.4,476.5c-1,0.2-2.5,0.8-4.4,1.9l-47,25.9c-0.6,0.3-1.2,0.9-1.6,1.8c-0.6,1.1-1,1.8-1.2,2.1
					c-1-0.9-1.7-1.6-2-2.1c-0.6-1-1.5-3.4-2.9-7c0.4,0.5,1.4,0.6,3.2,0.2c1.5-0.3,2.6-0.8,3.6-1.3l35.5-19.5c0.7-0.4,1.6-1,2.9-1.8
					c1.2-0.9,2.2-1.5,2.9-1.8c0.7-0.4,1.7-0.9,3.2-1.6c1.4-0.7,2.5-1.2,3.2-1.6c0.5-0.3,0.9-0.5,1.3-0.7c0.6-1.4,1.1-2.4,1.3-3
					c3,4.3,4.6,6.8,5,7.3c0.4,0.7,0.6,1.3,0.8,1.9C190.3,476.9,189.2,476.8,188.4,476.5z"/>
			</g>
			<g>
				<path class="st2" d="M195,488.5c-1,0.2-2.5,0.8-4.4,1.9l-47,25.9c-0.6,0.3-1.2,0.9-1.6,1.8c-0.6,1.1-1,1.8-1.2,2.1
					c-1-0.9-1.7-1.6-2-2.1c-0.6-1-1.5-3.4-2.9-7c0.4,0.5,1.4,0.6,3.2,0.2c1.5-0.3,2.6-0.8,3.6-1.3l35.5-19.5c0.7-0.4,1.6-1,2.9-1.8
					c1.2-0.9,2.2-1.5,2.9-1.8c0.7-0.4,1.7-0.9,3.2-1.6c1.4-0.7,2.5-1.2,3.2-1.6c0.5-0.3,0.9-0.5,1.3-0.7c0.6-1.4,1.1-2.4,1.3-3
					c3,4.3,4.6,6.8,5,7.3c0.4,0.7,0.6,1.3,0.8,1.9C196.9,488.8,195.8,488.7,195,488.5z"/>
			</g>
			<g>
				<path class="st2" d="M201.6,500.5c-1,0.2-2.5,0.8-4.4,1.9l-47,25.9c-0.6,0.3-1.2,0.9-1.6,1.8c-0.6,1.1-1,1.8-1.2,2.1
					c-1-0.9-1.7-1.6-2-2.1c-0.6-1-1.5-3.4-2.9-7c0.4,0.5,1.4,0.6,3.2,0.2c1.5-0.3,2.6-0.8,3.6-1.3l35.5-19.5c0.7-0.4,1.6-1,2.9-1.8
					c1.2-0.9,2.2-1.5,2.9-1.8c0.7-0.4,1.7-0.9,3.2-1.6c1.4-0.7,2.5-1.2,3.2-1.6c0.5-0.3,0.9-0.5,1.3-0.7c0.6-1.4,1.1-2.4,1.3-3
					c3,4.3,4.6,6.8,5,7.3c0.4,0.7,0.6,1.3,0.8,1.9C203.5,500.8,202.3,500.7,201.6,500.5z"/>
			</g>
			<g>
				<path class="st2" d="M167,569.4c-0.2-0.2-0.3-0.4-0.5-0.7c-0.8-1.5-1.4-2.9-1.7-4.4c1.5,0.4,2.6,0.4,3.4-0.1
					c0.3-0.1,2.7-2.4,7.4-6.7c5.2-4.8,8-7.4,8.4-7.7c1.3-1.2,4.3-3.9,9-8.2c3.7-3.4,6.7-6.1,9.1-8c4.1-3.4,6.1-5.4,6-6.2
					c-2,0.1-3.8,0.3-5.4,0.8c-2.6,0.7-9.8,2.7-21.5,6.1c-8.7,2.5-15.9,4.4-21.5,5.8c-0.2,0-1.1,0.2-2.7,0.5
					c-1.3,0.2-2.1,0.4-2.3,0.5c-0.1,0.1-0.7,0.7-1.9,1.8c-0.7-0.3-1.2-0.6-1.3-1c-0.3-0.5-0.6-1.3-1-2.4c-0.4-1.1-0.8-1.9-1.1-2.5
					c-0.2-0.3-0.5-0.6-0.9-1.1c-0.5-0.5-0.8-0.9-0.9-1.2l0-0.2l1.2-0.6c0.2,0.1,0.7,0.3,1.5,0.8c0.6,0.4,1.2,0.5,1.6,0.5
					c1.1,0,2.6-0.4,4.6-1.1c3.1-1,4.6-1.5,4.8-1.6c12.7-3.5,22.3-6.1,28.6-7.8c2.8-0.6,4.9-1,6.4-1.3c2.9-0.9,5.9-1.8,8.8-2.6
					c3.5-1,6.4-1.8,8.9-2.3c1,0.9,1.8,1.7,2.2,2.5c0.5,0.9,0.8,1.9,0.9,3.1c-3.2,2.9-6.4,5.8-9.5,8.7c-3.8,3.4-7.1,6.3-9.9,8.5
					c-1.5,1.2-2.6,2.2-3.5,3.1c-0.8,0.9-1.4,1.5-1.7,2c-2.5,2.3-4.5,4-5.9,5.1c-5.3,4.5-9.2,8-11.8,10.3c-2.6,2.3-4.2,3.9-5,4.6
					c-0.7,0.7-1.3,1.7-1.9,3C167.4,569.4,167.1,569.4,167,569.4z"/>
			</g>
		</g>
		<g class="st1">
			<g>
				<path class="st2" d="M264.2,580.2c-0.8,0.6-1.8,1.9-2.9,3.8l-28.7,45.4c-0.4,0.6-0.6,1.4-0.5,2.3c0,1.3,0,2.1-0.1,2.4
					c-1.3-0.3-2.2-0.6-2.8-0.9c-1-0.6-3-2.2-5.9-4.7c0.6,0.3,1.5-0.2,2.9-1.4c1.1-1,2-1.9,2.5-2.9l21.7-34.2c0.4-0.7,1-1.7,1.6-3
					c0.7-1.3,1.2-2.3,1.6-3c0.4-0.7,1.1-1.6,2-2.9c0.9-1.3,1.6-2.3,2-2.9c0.3-0.5,0.5-0.9,0.8-1.2c-0.1-1.5-0.2-2.6-0.3-3.3
					c4.7,2.4,7.3,3.7,7.9,4c0.6,0.4,1.2,0.8,1.6,1.2C266,579.6,265,580,264.2,580.2z"/>
			</g>
			<g>
				<path class="st2" d="M275.8,587.5c-0.8,0.6-1.8,1.9-2.9,3.8l-28.7,45.4c-0.4,0.6-0.6,1.4-0.5,2.3c0,1.3,0,2.1-0.1,2.4
					c-1.3-0.3-2.2-0.6-2.8-0.9c-1-0.6-3-2.2-5.9-4.7c0.6,0.3,1.5-0.2,2.9-1.4c1.1-1,2-1.9,2.5-2.9l21.7-34.2c0.4-0.7,1-1.7,1.6-3
					c0.7-1.3,1.2-2.3,1.6-3c0.4-0.7,1.1-1.6,2-2.9c0.9-1.3,1.6-2.3,2-2.9c0.3-0.5,0.5-0.9,0.8-1.2c-0.1-1.5-0.2-2.6-0.3-3.3
					c4.7,2.4,7.3,3.7,7.9,4c0.6,0.4,1.2,0.8,1.6,1.2C277.6,586.9,276.5,587.3,275.8,587.5z"/>
			</g>
			<g>
				<path class="st2" d="M278.7,664.6c-0.3-0.1-0.5-0.2-0.8-0.4c-1.4-0.9-2.6-1.9-3.6-3c1.5-0.3,2.5-0.9,3-1.7
					c0.2-0.3,1.2-3.4,3.3-9.4c2.2-6.7,3.4-10.3,3.6-10.8c0.6-1.7,1.9-5.5,3.9-11.5c1.6-4.7,2.9-8.5,4.1-11.4
					c1.9-4.9,2.7-7.7,2.3-8.3c-1.7,1-3.2,2.1-4.4,3.3c-1.9,1.9-7.2,7.1-15.9,15.7c-6.5,6.4-11.8,11.5-16,15.4
					c-0.1,0.1-0.8,0.7-2.1,1.7c-1.1,0.8-1.6,1.3-1.8,1.5c-0.1,0.1-0.3,0.9-0.8,2.5c-0.8,0.1-1.3,0-1.6-0.2c-0.5-0.3-1.2-0.9-2.1-1.6
					c-0.9-0.8-1.6-1.3-2.1-1.7c-0.3-0.2-0.7-0.3-1.3-0.5c-0.6-0.2-1.1-0.4-1.4-0.6l-0.1-0.1l0.7-1.1c0.2,0,0.8-0.1,1.7-0.1
					c0.7,0,1.3-0.1,1.6-0.3c0.9-0.5,2.1-1.6,3.5-3.2c2.2-2.4,3.3-3.6,3.4-3.7c9.5-9.2,16.6-16.1,21.3-20.7c2.2-1.9,3.8-3.3,5-4.2
					c2.1-2.2,4.3-4.4,6.4-6.5c2.5-2.6,4.8-4.7,6.7-6.3c1.4,0.3,2.4,0.7,3.1,1.1c0.9,0.6,1.6,1.3,2.2,2.3c-1.4,4.1-2.8,8.1-4.2,12.2
					c-1.7,4.9-3.2,8.9-4.5,12.2c-0.7,1.7-1.3,3.2-1.6,4.4c-0.3,1.2-0.5,2-0.6,2.6c-1.1,3.3-2,5.7-2.7,7.3
					c-2.4,6.5-4.2,11.4-5.4,14.7c-1.1,3.3-1.9,5.4-2.1,6.4c-0.3,1-0.4,2.1-0.2,3.6C279,664.4,278.8,664.5,278.7,664.6z"/>
			</g>
		</g>
		<g class="st1">
			<g>
				<path class="st2" d="M602.3,301.9c1-0.2,2.5-0.8,4.4-1.9l47-25.9c0.6-0.3,1.2-0.9,1.6-1.8c0.6-1.1,1-1.8,1.2-2.1
					c1,0.9,1.7,1.6,2,2.1c0.6,1,1.5,3.4,2.9,7c-0.4-0.5-1.4-0.6-3.2-0.2c-1.5,0.3-2.6,0.8-3.6,1.3l-35.5,19.5
					c-0.7,0.4-1.6,1-2.9,1.8c-1.2,0.9-2.2,1.5-2.9,1.8c-0.7,0.4-1.7,0.9-3.2,1.6c-1.4,0.7-2.5,1.2-3.1,1.6c-0.5,0.3-0.9,0.5-1.3,0.7
					c-0.6,1.4-1,2.4-1.3,3c-3-4.3-4.6-6.8-5-7.3c-0.4-0.7-0.6-1.3-0.8-1.9C600.5,301.6,601.6,301.7,602.3,301.9z"/>
			</g>
			<g>
				<path class="st2" d="M595.8,290c1-0.2,2.5-0.8,4.4-1.9l47-25.9c0.6-0.3,1.2-0.9,1.6-1.8c0.6-1.1,1-1.8,1.2-2.1
					c1,0.9,1.7,1.6,2,2.1c0.6,1,1.5,3.4,2.9,7c-0.4-0.5-1.4-0.6-3.2-0.2c-1.5,0.3-2.6,0.8-3.6,1.3l-35.5,19.5
					c-0.7,0.4-1.6,1-2.9,1.8c-1.2,0.9-2.2,1.5-2.9,1.8c-0.7,0.4-1.7,0.9-3.2,1.6c-1.4,0.7-2.5,1.2-3.2,1.6c-0.5,0.3-0.9,0.5-1.3,0.7
					c-0.6,1.4-1.1,2.4-1.3,3c-3-4.3-4.6-6.8-5-7.3c-0.4-0.7-0.6-1.3-0.8-1.9C593.9,289.6,595,289.8,595.8,290z"/>
			</g>
		</g>
		<g class="st1">
			<g>
				<path class="st2" d="M527.7,216.1c0.8-0.6,1.8-1.8,3.1-3.6l30.5-44.2c0.4-0.6,0.6-1.4,0.6-2.3c0-1.3,0.1-2.1,0.2-2.4
					c1.3,0.3,2.2,0.7,2.7,1c1,0.7,2.9,2.3,5.7,4.9c-0.5-0.3-1.5,0.1-2.9,1.3c-1.1,0.9-2,1.9-2.6,2.8l-23,33.3
					c-0.4,0.6-1,1.6-1.7,2.9c-0.7,1.3-1.3,2.3-1.7,2.9c-0.4,0.6-1.1,1.6-2.1,2.9c-1,1.3-1.7,2.2-2.1,2.9c-0.3,0.4-0.6,0.8-0.8,1.2
					c0.1,1.5,0.1,2.6,0.2,3.3c-4.6-2.5-7.2-4-7.7-4.3c-0.6-0.4-1.1-0.9-1.6-1.3C525.9,216.6,527,216.2,527.7,216.1z"/>
			</g>
		</g>
		<g class="st1">
			<g>
				<path class="st2" d="M387.4,686.1c0.9-1.1,1.5-2.2,1.7-3.1c0.3-1,0.8-3.1,1.6-6.5c0.8-3.4,1.9-8.5,3.4-15.3
					c0.3-1.7,0.9-4.3,1.7-7.6c0.2-0.5,0.5-1.3,0.9-2.5c0.4-1.2,0.7-2.7,1-4.5c0.6-3.5,1.5-7.7,2.7-12.7c1-4.2,2-8.4,3-12.5
					c1-0.5,2.1-0.7,3.1-0.7c0.9,0,1.9,0.2,3.2,0.7c0.8,2.4,1.5,5.3,2.3,8.9c0.7,3,1.3,6,2,9c0.5,1.4,1.1,3.4,2,6.2
					c1.5,6.4,3.8,16,6.9,28.9c0,0.1,0.4,1.8,0.9,4.9c0.4,2.1,0.8,3.6,1.3,4.6c0.2,0.4,0.6,0.8,1.2,1.2c0.8,0.5,1.3,0.9,1.4,1v1.3
					l-0.1,0.1c-0.4,0-0.9-0.1-1.5-0.3c-0.6-0.2-1.1-0.3-1.4-0.3c-0.6,0-1.5,0.1-2.7,0.3c-1.2,0.2-2,0.3-2.6,0.3
					c-0.4,0-0.9-0.2-1.5-0.7c0.4-1.6,0.7-2.4,0.7-2.5c0-0.2-0.2-1-0.7-2.2c-0.5-1.6-0.8-2.4-0.9-2.6c-1.4-5.6-3.2-12.8-5.2-21.6
					c-2.7-11.9-4.4-19.2-5-21.8c-0.4-1.6-1.1-3.3-1.9-5.1c-0.7,0.3-1.6,3-2.6,8.2c-0.5,3-1.4,7-2.6,11.8c-1.5,6.2-2.4,10.1-2.8,11.8
					c-0.1,0.5-1,4.2-2.7,11c-1.5,6.2-2.3,9.4-2.3,9.7c0,1,0.5,2,1.6,3c-1.4,0.4-2.9,0.6-4.6,0.6c-0.3,0-0.6,0-0.9-0.1
					C387.8,686.7,387.7,686.4,387.4,686.1z"/>
			</g>
			<g>
				<path class="st2" d="M372.2,620.4c0.6-0.1,1.3-0.2,2-0.2c0.6,0,3.6,0.3,8.8,0.8c-0.4,0.5-1.1,1.4-2,2.6c0,0.4,0,0.9,0,1.4
					c0,0.8,0,2,0.1,3.5c0.1,1.6,0.1,2.8,0.1,3.5c0,0.8-0.1,1.9-0.2,3.4c-0.2,1.5-0.2,2.6-0.2,3.4v40.5c0,1.1,0.2,2.3,0.6,3.8
					c0.5,1.7,1.1,2.6,1.7,2.7c-3.9,0.5-6.4,0.8-7.5,0.8c-0.6,0-1.6-0.2-2.8-0.7c0.1-0.3,0.5-1,1.2-2.1c0.5-0.8,0.8-1.5,0.8-2.2V628
					c0-2.2-0.2-3.8-0.5-4.8C373.6,622.7,373,621.7,372.2,620.4z"/>
			</g>
		</g>
		<g class="st1">
			<rect x="393.8" y="79" class="st2" width="13" height="18"/>
		</g>
		<g class="st1">
			<rect x="393.8" y="702" class="st2" width="13" height="18"/>
		</g>
		<g class="st1">
			<rect x="702.8" y="393" class="st2" width="18.3" height="13"/>
		</g>
		<g class="st1">
			
				<rect x="667.7" y="249.6" transform="matrix(0.8877 -0.4604 0.4604 0.8877 -41.943 340.4049)" class="st2" width="18.4" height="13.2"/>
		</g>
		<g class="st1">
			
				<rect x="570.4" y="138.3" transform="matrix(0.576 -0.8174 0.8174 0.576 127.3059 535.1657)" class="st2" width="18.4" height="13.2"/>
		</g>
		<g class="st1">
			
				<rect x="215.3" y="134.7" transform="matrix(0.8174 -0.576 0.576 0.8174 -42.3872 154.0816)" class="st2" width="13.2" height="18.4"/>
		</g>
		<g class="st1">
			
				<rect x="669.3" y="535.2" transform="matrix(0.4604 -0.8877 0.8877 0.4604 -118.5502 893.8284)" class="st2" width="13.2" height="18.4"/>
		</g>
		<g class="st1">
			
				<rect x="556.9" y="656" transform="matrix(0.8174 -0.5761 0.5761 0.8174 -280.2915 446.0904)" class="st2" width="13.2" height="18.4"/>
		</g>
		<g class="st1">
			
				<rect x="226.8" y="658.6" transform="matrix(0.576 -0.8174 0.8174 0.576 -443.6675 474.9549)" class="st2" width="18.4" height="13.2"/>
		</g>
		<g class="st1">
			<g>
				<path class="st2" d="M399.4,179.5c2.7,4.8,5.6,44,6.4,57.3c0.7,12,4.5,21.1,7.6,26.6c1.2,2.2,2.3,3.7,3,4.6
					c1.4,1.4,2.6,2.9,3.5,4.6l0,0c4.2,7.4,3.5,16.5-1.6,23.2c-2.2,2.8-5,5-8.2,6.4l4,75.8l-19.1,0.9l0.6-75.7
					c-2.5-0.7-4.8-1.9-6.9-3.5c-2.3-1.8-4.2-3.9-5.6-6.4c-4.2-7.4-3.5-16.5,1.7-23.2c0.6-0.8,1.3-2.2,1.6-2.7l0-0.1
					c7.9-14.4,7.5-32.7,7.5-32.9c0-0.2,0-13.8,0.2-27.2c0.6-28.5,1.6-28.7,3.3-28.9C397.7,178.3,398.7,178.3,399.4,179.5z
					 M410.6,264.9c-3.3-5.8-7.3-15.3-8-28c-1.1-18.4-3-39.6-4.6-49.9c-0.7,9.8-1,29.4-1,47.4c0,0.7,0.5,19.3-7.8,34.5
					c-0.2,0.3-1,2.1-1.9,3.2c-4.4,5.7-4.9,13.4-1.4,19.7c1.2,2.1,2.8,3.9,4.7,5.4c2.1,1.6,4.4,2.7,6.9,3.2l1.3,0.3l0,1.3l-0.6,73.6
					l12.5-0.6l-4-74.9l1.1-0.4c3.1-1.2,5.9-3.2,7.9-5.8c4.4-5.7,4.9-13.4,1.4-19.7l0,0c-0.8-1.5-1.9-2.8-3.1-4l-0.2-0.2
					C413.1,269,411.9,267.3,410.6,264.9z"/>
			</g>
			<g>
				<path class="st2" d="M412.3,376.5l-4-75.3c3.3-1.2,6.3-3.4,8.6-6.4c6.1-7.9,5.1-19-1.8-25.8c-2.3-3-9.9-14.5-11-32.2
					c-1.2-20.7-4.3-57.3-6.6-57c-2.3,0.3-2.2,54.5-2.2,54.5s0.6,18.8-7.7,33.7c0,0-0.9,1.9-1.7,3c-6.6,8.6-4.9,20.8,3.6,27.4
					c2.3,1.8,4.9,2.9,7.6,3.5l-0.6,75.3L412.3,376.5z"/>
			</g>
		</g>
		<g id="pointer_3_" class="st1">
			<g>
				<g>
					<path class="st2" d="M380,403.3l7.6,16.7l-41.1,15.7c0.3,2.7,0.1,5.3-0.7,7.9c-3.1,11-14.6,17.4-25.6,14.3l-0.1,0
						c-1.2-0.3-3-0.4-3-0.4c-16.4-2.1-24.4,1.3-24.5,1.3c-30.6,10.9-31.1,9.8-31.7,8.6c-0.5-1.2-1.4-3.6,26.5-16.7
						c12.8-6,16.4-14.1,18.3-18.5c0.4-1,0.8-1.7,1.1-2.4c4.1-9.6,14.7-14.7,24.7-11.8c3.4,1,6.5,2.8,9,5.3L380,403.3z M384.3,418.7
						l-5.5-12.1L340,426.3l-0.6-0.7c-2.3-2.5-5.3-4.4-8.5-5.3c-8.9-2.5-18.3,2-21.9,10.5l-0.1,0.2c-0.3,0.5-0.6,1.3-1,2.1
						c-2,4.7-5.8,13.3-19.5,19.7c-14.5,6.8-20.7,10.5-23.4,12.4c5.2-1.4,16.5-5.1,26.6-8.7c0.3-0.1,8.6-3.7,25.6-1.5
						c0,0,1.9,0.1,3.3,0.5l0.2,0.1c9.7,2.8,19.9-2.9,22.6-12.6c0.7-2.5,0.9-5.2,0.5-7.8l-0.2-1L384.3,418.7z"/>
				</g>
				<g>
					<path class="st2" d="M379.5,404.9l-39.1,19.9c-2.4-2.6-5.5-4.6-9.1-5.7c-9.6-2.7-19.5,2.2-23.3,11.2c-2,3.2-4,13.9-20,21.4
						c-18.8,8.8-26.5,13.8-25.9,15.1c0.5,1.3,30.1-9.2,30.1-9.2s8.2-3.6,25.1-1.4c0,0,1.9,0.1,3.2,0.5c0.1,0,0.1,0,0.2,0.1
						c10.4,2.9,21.2-3.1,24.1-13.5c0.8-2.8,0.9-5.6,0.5-8.3l40.8-15.6L379.5,404.9z"/>
				</g>
			</g>
			<g>
				<path class="st2" d="M427,390.4c4.5,9.7,2.8,21.1-4.3,29c-9.8,10.9-26.6,11.9-37.6,2.1c-2.7-2.4-4.9-5.3-6.4-8.6
					c-4.5-9.7-2.8-21.1,4.3-29c9.8-10.9,26.6-11.9,37.6-2.1C423.3,384.2,425.4,387.1,427,390.4z M383.1,410.9c1.2,2.7,3,5,5.2,7
					c9,8,22.8,7.2,30.8-1.7c5.8-6.5,7.2-15.8,3.5-23.8c-1.2-2.7-3-5-5.2-7c-9-8-22.8-7.2-30.8,1.7
					C380.8,393.6,379.4,403,383.1,410.9z"/>
			</g>
			<g>
				
					<ellipse transform="matrix(0.6662 -0.7457 0.7457 0.6662 -165.0716 434.4797)" class="st2" cx="402.8" cy="401.7" rx="8" ry="8"/>
			</g>
		</g>
		<g class="st1">
			<rect x="399.8" y="192" class="st2" width="2" height="17"/>
		</g>
		<g class="st1">
			
				<rect x="388.7" y="192.6" transform="matrix(0.9986 -5.235352e-02 5.235352e-02 0.9986 -9.9942 20.6768)" class="st2" width="1.9" height="17"/>
		</g>
		<g class="st1">
			
				<rect x="378.4" y="193.4" transform="matrix(0.9945 -0.1046 0.1046 0.9945 -19.0462 40.7977)" class="st2" width="1.9" height="17"/>
		</g>
		<g class="st1">
			
				<rect x="368" y="194.8" transform="matrix(0.9877 -0.1564 0.1564 0.9877 -27.2504 60.207)" class="st2" width="1.9" height="17"/>
		</g>
		<g class="st1">
			
				<rect x="357.8" y="196.7" transform="matrix(0.9782 -0.2079 0.2079 0.9782 -34.809 79.0438)" class="st2" width="1.9" height="17"/>
		</g>
		<g class="st1">
			
				<rect x="347.7" y="199.1" transform="matrix(0.9659 -0.2588 0.2588 0.9659 -41.8493 97.2984)" class="st2" width="1.9" height="17"/>
		</g>
		<g class="st1">
			
				<rect x="337.7" y="202.1" transform="matrix(0.951 -0.309 0.309 0.951 -48.4909 114.9581)" class="st2" width="1.9" height="17"/>
		</g>
		<g class="st1">
			
				<rect x="327.9" y="205.5" transform="matrix(0.9336 -0.3584 0.3584 0.9336 -54.8593 132.063)" class="st2" width="1.9" height="17"/>
		</g>
		<g class="st1">
			
				<rect x="318.2" y="209.5" transform="matrix(0.9136 -0.4067 0.4067 0.9136 -61.068 148.6567)" class="st2" width="1.9" height="17"/>
		</g>
		<g class="st1">
			<rect x="308.8" y="214" transform="matrix(0.891 -0.454 0.454 0.891 -67.2391 164.9125)" class="st2" width="1.9" height="17"/>
		</g>
		<g class="st1">
			<rect x="299.7" y="218.9" transform="matrix(0.866 -0.5 0.5 0.866 -73.4404 180.7858)" class="st2" width="1.9" height="17"/>
		</g>
		<g class="st1">
			
				<rect x="290.8" y="224.4" transform="matrix(0.8387 -0.5446 0.5446 0.8387 -79.7603 196.4455)" class="st2" width="1.9" height="17"/>
		</g>
		<g class="st1">
			
				<rect x="282.2" y="230.3" transform="matrix(0.809 -0.5878 0.5878 0.809 -86.2617 212.0345)" class="st2" width="1.9" height="17"/>
		</g>
		<g class="st1">
			
				<rect x="274" y="236.6" transform="matrix(0.7772 -0.6293 0.6293 0.7772 -92.9815 227.6044)" class="st2" width="1.9" height="17"/>
		</g>
		<g class="st1">
			
				<rect x="266" y="243.4" transform="matrix(0.7431 -0.6691 0.6691 0.7431 -99.9496 243.3425)" class="st2" width="1.9" height="17"/>
		</g>
		<g class="st1">
			
				<rect x="258.5" y="250.5" transform="matrix(0.7071 -0.7071 0.7071 0.7071 -107.1709 259.3148)" class="st2" width="1.9" height="17"/>
		</g>
		<g class="st1">
			
				<rect x="251.3" y="258.1" transform="matrix(0.6691 -0.7432 0.7432 0.6691 -114.6361 275.6772)" class="st2" width="1.9" height="17"/>
		</g>
		<g class="st1">
			
				<rect x="244.6" y="266" transform="matrix(0.6294 -0.7771 0.7771 0.6294 -122.317 292.5154)" class="st2" width="1.9" height="17"/>
		</g>
		<g class="st1">
			
				<rect x="238.2" y="274.3" transform="matrix(0.5878 -0.809 0.809 0.5878 -130.1634 310.0152)" class="st2" width="1.9" height="17"/>
		</g>
		<g class="st1">
			
				<rect x="232.3" y="282.8" transform="matrix(0.5446 -0.8387 0.8387 0.5446 -138.1085 328.2872)" class="st2" width="1.9" height="17"/>
		</g>
		<g class="st1">
			
				<rect x="226.9" y="291.7" transform="matrix(0.5001 -0.866 0.866 0.5001 -146.0784 347.3525)" class="st2" width="1.9" height="17"/>
		</g>
		<g class="st1">
			
				<rect x="221.9" y="300.9" transform="matrix(0.454 -0.891 0.891 0.454 -153.9603 367.4386)" class="st2" width="1.9" height="17"/>
		</g>
		<g class="st1">
			
				<rect x="217.4" y="310.3" transform="matrix(0.4068 -0.9135 0.9135 0.4068 -161.649 388.5473)" class="st2" width="1.9" height="17"/>
		</g>
		<g class="st1">
			
				<rect x="213.4" y="319.9" transform="matrix(0.3584 -0.9336 0.9336 0.3584 -169.0099 410.7989)" class="st2" width="1.9" height="17"/>
		</g>
		<g class="st1">
			
				<rect x="209.9" y="329.7" transform="matrix(0.3091 -0.951 0.951 0.3091 -175.9123 434.1991)" class="st2" width="1.9" height="17"/>
		</g>
		<g class="st1">
			
				<rect x="207" y="339.7" transform="matrix(0.2588 -0.9659 0.9659 0.2588 -182.1864 458.8694)" class="st2" width="1.9" height="17"/>
		</g>
		<g class="st1">
			
				<rect x="204.5" y="349.8" transform="matrix(0.208 -0.9781 0.9781 0.208 -187.6961 484.7452)" class="st2" width="1.9" height="17"/>
		</g>
		<g class="st1">
			
				<rect x="202.6" y="360" transform="matrix(0.1565 -0.9877 0.9877 0.1565 -192.2485 511.9179)" class="st2" width="1.9" height="17"/>
		</g>
		<g class="st1">
			
				<rect x="201.3" y="370.3" transform="matrix(0.1046 -0.9945 0.9945 0.1046 -195.6894 540.319)" class="st2" width="1.9" height="17"/>
		</g>
		<g class="st1">
			
				<rect x="200.5" y="380.7" transform="matrix(5.238598e-02 -0.9986 0.9986 5.238598e-02 -197.8326 569.9452)" class="st2" width="1.9" height="17"/>
		</g>
		<g class="st1">
			<rect x="192.8" y="398" class="st2" width="16" height="2"/>
		</g>
		<g class="st1">
			
				<rect x="192.9" y="409.3" transform="matrix(0.9986 -5.226946e-02 5.226946e-02 0.9986 -21.1672 11.0868)" class="st2" width="17" height="1.9"/>
		</g>
		<g class="st1">
			
				<rect x="193.7" y="419.7" transform="matrix(0.9945 -0.1046 0.1046 0.9945 -42.8841 23.4562)" class="st2" width="17" height="1.9"/>
		</g>
		<g class="st1">
			
				<rect x="195.1" y="430" transform="matrix(0.9877 -0.1564 0.1564 0.9877 -64.8943 37.1422)" class="st2" width="17" height="1.9"/>
		</g>
		<g class="st1">
			
				<rect x="197" y="440.2" transform="matrix(0.9782 -0.2077 0.2077 0.9782 -87.1341 52.2851)" class="st2" width="17" height="1.9"/>
		</g>
		<g class="st1">
			
				<rect x="199.4" y="450.4" transform="matrix(0.966 -0.2585 0.2585 0.966 -109.6049 69.093)" class="st2" width="17" height="1.9"/>
		</g>
		<g class="st1">
			
				<rect x="202.4" y="460.3" transform="matrix(0.9511 -0.3089 0.3089 0.9511 -132.17 87.6919)" class="st2" width="17" height="1.9"/>
		</g>
		<g class="st1">
			
				<rect x="205.9" y="470.1" transform="matrix(0.9336 -0.3583 0.3583 0.9336 -154.5558 108.0757)" class="st2" width="17" height="1.9"/>
		</g>
		<g class="st1">
			
				<rect x="209.9" y="479.8" transform="matrix(0.9134 -0.407 0.407 0.9134 -176.7475 130.483)" class="st2" width="17" height="1.9"/>
		</g>
		<g class="st1">
			
				<rect x="214.3" y="489.2" transform="matrix(0.8912 -0.4536 0.4536 0.8912 -198.0634 154.3902)" class="st2" width="17" height="1.9"/>
		</g>
		<g class="st1">
			
				<rect x="219.3" y="498.3" transform="matrix(0.866 -0.5001 0.5001 0.866 -219.1356 180.8309)" class="st2" width="17" height="1.9"/>
		</g>
		<g class="st1">
			
				<rect x="224.8" y="507.2" transform="matrix(0.8388 -0.5444 0.5444 0.8388 -239.0205 208.8621)" class="st2" width="17" height="1.9"/>
		</g>
		<g class="st1">
			
				<rect x="230.7" y="515.8" transform="matrix(0.809 -0.5878 0.5878 0.809 -258.0354 239.2473)" class="st2" width="17" height="1.9"/>
		</g>
		<g class="st1">
			<rect x="237" y="524" transform="matrix(0.777 -0.6296 0.6296 0.777 -275.7384 271.6456)" class="st2" width="17" height="1.9"/>
		</g>
		<g class="st1">
			
				<rect x="243.8" y="531.9" transform="matrix(0.7434 -0.6689 0.6689 0.7434 -291.6947 305.4893)" class="st2" width="17" height="1.9"/>
		</g>
		<g class="st1">
			
				<rect x="250.9" y="539.5" transform="matrix(0.7075 -0.7067 0.7067 0.7075 -306.0487 341.4376)" class="st2" width="17" height="1.9"/>
		</g>
		<g class="st1">
			
				<rect x="258.5" y="546.6" transform="matrix(0.6694 -0.7429 0.7429 0.6694 -318.5424 379.3935)" class="st2" width="17" height="1.9"/>
		</g>
		<g class="st1">
			
				<rect x="266.4" y="553.4" transform="matrix(0.6292 -0.7773 0.7773 0.6292 -328.9324 419.2522)" class="st2" width="17" height="1.9"/>
		</g>
		<g class="st1">
			
				<rect x="274.7" y="559.7" transform="matrix(0.5876 -0.8092 0.8092 0.5876 -336.8987 460.3748)" class="st2" width="17" height="1.9"/>
		</g>
		<g class="st1">
			
				<rect x="283.3" y="565.6" transform="matrix(0.5444 -0.8388 0.8388 0.5444 -342.3322 502.8656)" class="st2" width="17" height="1.9"/>
		</g>
		<g class="st1">
			
				<rect x="292.2" y="571.1" transform="matrix(0.4998 -0.8662 0.8662 0.4998 -345.0627 546.5427)" class="st2" width="17" height="1.9"/>
		</g>
		<g class="st1">
			
				<rect x="301.3" y="576" transform="matrix(0.4543 -0.8908 0.8908 0.4543 -344.9432 590.8055)" class="st2" width="17" height="1.9"/>
		</g>
		<g class="st1">
			
				<rect x="310.7" y="580.5" transform="matrix(0.406 -0.9139 0.9139 0.406 -341.7731 637.0728)" class="st2" width="17" height="1.9"/>
		</g>
		<g class="st1">
			
				<rect x="320.3" y="584.5" transform="matrix(0.3583 -0.9336 0.9336 0.3583 -335.5648 682.6329)" class="st2" width="17" height="1.9"/>
		</g>
		<g class="st1">
			
				<rect x="330.1" y="588" transform="matrix(0.3091 -0.951 0.951 0.3091 -326.0987 728.9418)" class="st2" width="17" height="1.9"/>
		</g>
		<g class="st1">
			
				<rect x="340.1" y="590.9" transform="matrix(0.2589 -0.9659 0.9659 0.2589 -313.3117 775.3617)" class="st2" width="17" height="1.9"/>
		</g>
		<g class="st1">
			
				<rect x="350.3" y="593.3" transform="matrix(0.2082 -0.9781 0.9781 0.2082 -297.194 821.4608)" class="st2" width="17" height="1.9"/>
		</g>
		<g class="st1">
			
				<rect x="360.5" y="595.2" transform="matrix(0.1569 -0.9876 0.9876 0.1569 -277.6911 867.0627)" class="st2" width="17" height="1.9"/>
		</g>
		<g class="st1">
			
				<rect x="370.8" y="596.6" transform="matrix(0.1046 -0.9945 0.9945 0.1046 -254.6036 912.2748)" class="st2" width="17" height="1.9"/>
		</g>
		<g class="st1">
			
				<rect x="381.2" y="597.4" transform="matrix(5.228358e-02 -0.9986 0.9986 5.228358e-02 -228.2016 956.2131)" class="st2" width="17" height="1.9"/>
		</g>
		<g class="st1">
			<rect x="399.8" y="591" class="st2" width="2" height="16"/>
		</g>
		<g class="st1">
			
				<rect x="409.6" y="590" transform="matrix(0.9986 -5.235814e-02 5.235814e-02 0.9986 -30.7747 22.3143)" class="st2" width="1.9" height="17"/>
		</g>
		<g class="st1">
			<rect x="420" y="589.2" transform="matrix(0.9945 -0.1045 0.1045 0.9945 -60.17 47.2688)" class="st2" width="1.9" height="17"/>
		</g>
		<g class="st1">
			
				<rect x="430.3" y="587.9" transform="matrix(0.9877 -0.1564 0.1564 0.9877 -87.9448 74.7674)" class="st2" width="1.9" height="17"/>
		</g>
		<g class="st1">
			
				<rect x="440.5" y="585.9" transform="matrix(0.9782 -0.2078 0.2078 0.9782 -113.8923 104.7211)" class="st2" width="1.9" height="17"/>
		</g>
		<g class="st1">
			
				<rect x="450.7" y="583.5" transform="matrix(0.9659 -0.2589 0.2589 0.9659 -137.8665 137.1027)" class="st2" width="1.9" height="17"/>
		</g>
		<g class="st1">
			
				<rect x="460.7" y="580.5" transform="matrix(0.9511 -0.309 0.309 0.9511 -159.4229 171.4646)" class="st2" width="1.9" height="17"/>
		</g>
		<g class="st1">
			
				<rect x="470.5" y="577.1" transform="matrix(0.9336 -0.3583 0.3583 0.9336 -178.522 207.8237)" class="st2" width="1.9" height="17"/>
		</g>
		<g class="st1">
			
				<rect x="480.1" y="573.1" transform="matrix(0.9136 -0.4067 0.4067 0.9136 -194.9363 245.9136)" class="st2" width="1.9" height="17"/>
		</g>
		<g class="st1">
			
				<rect x="489.5" y="568.6" transform="matrix(0.891 -0.4541 0.4541 0.891 -208.5536 285.6322)" class="st2" width="1.9" height="17"/>
		</g>
		<g class="st1">
			
				<rect x="498.7" y="563.6" transform="matrix(0.866 -0.5001 0.5001 0.866 -219.121 326.4961)" class="st2" width="1.9" height="17"/>
		</g>
		<g class="st1">
			
				<rect x="507.6" y="558.1" transform="matrix(0.8387 -0.5446 0.5446 0.8387 -226.5757 368.3675)" class="st2" width="1.9" height="17"/>
		</g>
		<g class="st1">
			
				<rect x="516.1" y="552.2" transform="matrix(0.809 -0.5878 0.5878 0.809 -230.8357 411.0497)" class="st2" width="1.9" height="17"/>
		</g>
		<g class="st1">
			
				<rect x="524.4" y="545.9" transform="matrix(0.7772 -0.6293 0.6293 0.7772 -231.8016 454.1507)" class="st2" width="1.9" height="17"/>
		</g>
		<g class="st1">
			
				<rect x="532.3" y="539.1" transform="matrix(0.7431 -0.6691 0.6691 0.7431 -229.4451 497.507)" class="st2" width="1.9" height="17"/>
		</g>
		<g class="st1">
			
				<rect x="539.9" y="531.9" transform="matrix(0.7071 -0.7071 0.7071 0.7071 -223.7322 540.7209)" class="st2" width="1.9" height="17"/>
		</g>
		<g class="st1">
			
				<rect x="547.1" y="524.4" transform="matrix(0.6692 -0.7431 0.7431 0.6692 -214.6775 583.517)" class="st2" width="1.9" height="17"/>
		</g>
		<g class="st1">
			
				<rect x="553.8" y="516.4" transform="matrix(0.6293 -0.7772 0.7772 0.6293 -202.3006 625.769)" class="st2" width="1.9" height="17"/>
		</g>
		<g class="st1">
			
				<rect x="560.2" y="508.2" transform="matrix(0.5878 -0.809 0.809 0.5878 -186.6834 666.9485)" class="st2" width="1.9" height="17"/>
		</g>
		<g class="st1">
			
				<rect x="566.1" y="499.6" transform="matrix(0.5446 -0.8387 0.8387 0.5446 -167.8945 706.9333)" class="st2" width="1.9" height="17"/>
		</g>
		<g class="st1">
			<rect x="571.5" y="490.7" transform="matrix(0.5 -0.866 0.866 0.5 -146.0691 745.3634)" class="st2" width="1.9" height="17"/>
		</g>
		<g class="st1">
			
				<rect x="576.5" y="481.5" transform="matrix(0.454 -0.891 0.891 0.454 -121.3204 782.0624)" class="st2" width="1.9" height="17"/>
		</g>
		<g class="st1">
			
				<rect x="581" y="472.1" transform="matrix(0.4066 -0.9136 0.9136 0.4066 -93.7931 816.8027)" class="st2" width="1.9" height="17"/>
		</g>
		<g class="st1">
			
				<rect x="585" y="462.5" transform="matrix(0.3583 -0.9336 0.9336 0.3583 -63.7574 849.1866)" class="st2" width="1.9" height="17"/>
		</g>
		<g class="st1">
			
				<rect x="588.4" y="452.7" transform="matrix(0.3089 -0.9511 0.9511 0.3089 -31.2902 879.2354)" class="st2" width="1.9" height="17"/>
		</g>
		<g class="st1">
			
				<rect x="591.4" y="442.7" transform="matrix(0.2588 -0.9659 0.9659 0.2588 3.2451 906.5362)" class="st2" width="1.9" height="17"/>
		</g>
		<g class="st1">
			
				<rect x="593.8" y="432.5" transform="matrix(0.2079 -0.9782 0.9782 0.2079 39.7426 931.1107)" class="st2" width="1.9" height="17"/>
		</g>
		<g class="st1">
			
				<rect x="595.7" y="422.3" transform="matrix(0.1564 -0.9877 0.9877 0.1564 77.8616 952.6957)" class="st2" width="1.9" height="17"/>
		</g>
		<g class="st1">
			
				<rect x="597.1" y="411.9" transform="matrix(0.1045 -0.9945 0.9945 0.1045 117.364 971.212)" class="st2" width="1.9" height="17"/>
		</g>
		<g class="st1">
			
				<rect x="597.9" y="401.6" transform="matrix(5.234921e-02 -0.9986 0.9986 5.234921e-02 157.9907 986.5723)" class="st2" width="1.9" height="17"/>
		</g>
		<g class="st1">
			<rect x="590.8" y="398" class="st2" width="17" height="2"/>
		</g>
		<g class="st1">
			
				<rect x="590.3" y="388.5" transform="matrix(0.9986 -5.228330e-02 5.228330e-02 0.9986 -19.5403 31.8399)" class="st2" width="17" height="1.9"/>
		</g>
		<g class="st1">
			
				<rect x="589.5" y="378.1" transform="matrix(0.9946 -0.1041 0.1041 0.9946 -36.2052 64.3079)" class="st2" width="17" height="1.9"/>
		</g>
		<g class="st1">
			
				<rect x="588.1" y="367.7" transform="matrix(0.9876 -0.1569 0.1569 0.9876 -50.4504 98.1652)" class="st2" width="17" height="1.9"/>
		</g>
		<g class="st1">
			
				<rect x="586.3" y="357.5" transform="matrix(0.9781 -0.2081 0.2081 0.9781 -61.561 131.5903)" class="st2" width="17" height="1.9"/>
		</g>
		<g class="st1">
			
				<rect x="583.8" y="347.4" transform="matrix(0.9661 -0.2583 0.2583 0.9661 -69.8699 164.8363)" class="st2" width="17" height="1.9"/>
		</g>
		<g class="st1">
			
				<rect x="580.9" y="337.4" transform="matrix(0.951 -0.3091 0.3091 0.951 -75.7013 198.7111)" class="st2" width="17" height="1.9"/>
		</g>
		<g class="st1">
			
				<rect x="577.4" y="327.5" transform="matrix(0.9335 -0.3587 0.3587 0.9335 -78.8329 232.0099)" class="st2" width="17" height="1.9"/>
		</g>
		<g class="st1">
			
				<rect x="573.4" y="317.9" transform="matrix(0.9139 -0.4059 0.4059 0.9139 -79.3281 263.666)" class="st2" width="17" height="1.9"/>
		</g>
		<g class="st1">
			
				<rect x="568.9" y="308.5" transform="matrix(0.891 -0.4541 0.4541 0.891 -77.5451 295.9239)" class="st2" width="17" height="1.9"/>
		</g>
		<g class="st1">
			
				<rect x="564" y="299.3" transform="matrix(0.8659 -0.5002 0.5002 0.8659 -73.4357 326.577)" class="st2" width="17" height="1.9"/>
		</g>
		<g class="st1">
			
				<rect x="558.5" y="290.4" transform="matrix(0.8389 -0.5443 0.5443 0.8389 -67.2487 355.5527)" class="st2" width="17" height="1.9"/>
		</g>
		<g class="st1">
			
				<rect x="552.6" y="281.8" transform="matrix(0.8092 -0.5875 0.5875 0.8092 -59.0853 383.6364)" class="st2" width="17" height="1.9"/>
		</g>
		<g class="st1">
			
				<rect x="546.3" y="273.6" transform="matrix(0.7773 -0.6292 0.6292 0.7773 -49.1519 410.1864)" class="st2" width="17" height="1.9"/>
		</g>
		<g class="st1">
			
				<rect x="539.5" y="265.6" transform="matrix(0.7434 -0.6689 0.6689 0.7434 -37.6846 434.9466)" class="st2" width="17" height="1.9"/>
		</g>
		<g class="st1">
			
				<rect x="532.3" y="258.1" transform="matrix(0.7071 -0.7071 0.7071 0.7071 -24.7414 458.3167)" class="st2" width="17" height="1.9"/>
		</g>
		<g class="st1">
			
				<rect x="524.8" y="250.9" transform="matrix(0.6689 -0.7434 0.7434 0.6689 -10.6355 479.8113)" class="st2" width="17" height="1.9"/>
		</g>
		<g class="st1">
			
				<rect x="516.9" y="244.1" transform="matrix(0.6297 -0.7768 0.7768 0.6297 4.1452 498.8386)" class="st2" width="17" height="1.9"/>
		</g>
		<g class="st1">
			
				<rect x="508.6" y="237.8" transform="matrix(0.5878 -0.809 0.809 0.5878 20.0264 516.7469)" class="st2" width="17" height="1.9"/>
		</g>
		<g class="st1">
			
				<rect x="500" y="231.9" transform="matrix(0.5446 -0.8387 0.8387 0.5446 36.3085 532.4982)" class="st2" width="17" height="1.9"/>
		</g>
		<g class="st1">
			<rect x="491.1" y="226.4" transform="matrix(0.5 -0.866 0.866 0.5 52.8911 546.3432)" class="st2" width="17" height="1.9"/>
		</g>
		<g class="st1">
			<rect x="482" y="221.4" transform="matrix(0.454 -0.891 0.891 0.454 69.63 558.4053)" class="st2" width="17" height="1.9"/>
		</g>
		<g class="st1">
			
				<rect x="472.6" y="216.9" transform="matrix(0.4068 -0.9135 0.9135 0.4068 86.3082 568.7036)" class="st2" width="17" height="1.9"/>
		</g>
		<g class="st1">
			
				<rect x="462.9" y="213" transform="matrix(0.3587 -0.9334 0.9334 0.3587 102.6522 577.2233)" class="st2" width="17" height="1.9"/>
		</g>
		<g class="st1">
			
				<rect x="453.1" y="209.5" transform="matrix(0.3092 -0.951 0.951 0.3092 118.7711 584.3412)" class="st2" width="17" height="1.9"/>
		</g>
		<g class="st1">
			
				<rect x="443.1" y="206.5" transform="matrix(0.2592 -0.9658 0.9658 0.2592 134.1979 589.8625)" class="st2" width="17" height="1.9"/>
		</g>
		<g class="st1">
			
				<rect x="433" y="204.1" transform="matrix(0.2084 -0.978 0.978 0.2084 148.9648 594.0762)" class="st2" width="17" height="1.9"/>
		</g>
		<g class="st1">
			
				<rect x="422.8" y="202.2" transform="matrix(0.1567 -0.9877 0.9877 0.1567 163.0829 597.2036)" class="st2" width="17" height="1.9"/>
		</g>
		<g class="st1">
			
				<rect x="412.4" y="200.8" transform="matrix(0.1051 -0.9945 0.9945 0.1051 176.0407 599.1108)" class="st2" width="17" height="1.9"/>
		</g>
		<g class="st1">
			
				<rect x="402" y="200" transform="matrix(5.282578e-02 -0.9986 0.9986 5.282578e-02 188.196 600.2489)" class="st2" width="17" height="1.9"/>
		</g>
	</g>
	<g class="st1">
		<rect x="78.8" y="400" width="18.5" height="12"/>
	</g>
	<g class="st1">
		<polygon points="104.8,273.9 120.4,282.3 126,271 110.4,262.7 		"/>
	</g>
	<g class="st1">
		<rect x="112.5" y="534.3" transform="matrix(0.8877 -0.4604 0.4604 0.8877 -235.143 116.6529)" width="18.2" height="12.2"/>
	</g>
	<g class="st1">
		<path d="M400,721.8c-43.4,0-85.6-8.5-125.3-25.3c-38.3-16.2-72.7-39.4-102.3-69c-29.6-29.6-52.8-64-69-102.3
			C86.7,485.6,78.2,443.4,78.2,400s8.5-85.6,25.3-125.3c16.2-38.3,39.4-72.7,69-102.3s64-52.8,102.3-69
			c39.7-16.8,81.8-25.3,125.3-25.3s85.6,8.5,125.3,25.3c38.3,16.2,72.7,39.4,102.3,69c29.6,29.6,52.8,64,69,102.3
			c16.8,39.7,25.3,81.8,25.3,125.3s-8.5,85.6-25.3,125.3c-16.2,38.3-39.4,72.7-69,102.3c-29.6,29.6-64,52.8-102.3,69
			C485.6,713.3,443.4,721.8,400,721.8z M400,79.6c-43.3,0-85.2,8.5-124.7,25.2c-38.2,16.1-72.4,39.2-101.8,68.7
			c-29.4,29.4-52.5,63.7-68.7,101.8C88.1,314.8,79.6,356.7,79.6,400s8.5,85.2,25.2,124.7c16.1,38.2,39.2,72.4,68.7,101.8
			c29.4,29.4,63.7,52.5,101.8,68.7c39.5,16.7,81.5,25.2,124.7,25.2s85.2-8.5,124.7-25.2c38.2-16.1,72.4-39.2,101.8-68.7
			c29.4-29.4,52.5-63.7,68.7-101.8c16.7-39.5,25.2-81.5,25.2-124.7s-8.5-85.2-25.2-124.7c-16.1-38.2-39.2-72.4-68.7-101.8
			c-29.4-29.4-63.7-52.5-101.8-68.7C485.2,88.1,443.3,79.6,400,79.6z"/>
	</g>
	<g class="st1">
		<path d="M400,703.4c-81,0-157.2-31.6-214.5-88.9C128.1,557.2,96.6,481,96.6,400s31.6-157.2,88.9-214.5
			C242.8,128.1,319,96.6,400,96.6s157.2,31.6,214.5,88.9c57.3,57.3,88.9,133.5,88.9,214.5s-31.6,157.2-88.9,214.5
			C557.2,671.9,481,703.4,400,703.4z M400,98c-80.7,0-156.5,31.4-213.5,88.5C129.4,243.5,98,319.3,98,400s31.4,156.5,88.5,213.5
			c57,57,132.9,88.5,213.5,88.5s156.5-31.4,213.5-88.5c57-57,88.5-132.9,88.5-213.5s-31.4-156.5-88.5-213.5
			C556.5,129.4,480.7,98,400,98z"/>
	</g>
	<g class="st1">
		<path d="M400,608.6c-55.7,0-108.1-21.7-147.5-61.1c-39.4-39.4-61.1-91.8-61.1-147.5s21.7-108.1,61.1-147.5
			c39.4-39.4,91.8-61.1,147.5-61.1s108.1,21.7,147.5,61.1c39.4,39.4,61.1,91.8,61.1,147.5s-21.7,108.1-61.1,147.5
			C508.1,586.9,455.7,608.6,400,608.6z M400,192.8c-55.4,0-107.4,21.6-146.5,60.7c-39.1,39.1-60.7,91.2-60.7,146.5
			c0,55.4,21.6,107.4,60.7,146.5c39.1,39.1,91.2,60.7,146.5,60.7c55.4,0,107.4-21.6,146.5-60.7c39.1-39.1,60.7-91.2,60.7-146.5
			c0-55.4-21.6-107.4-60.7-146.5C507.4,214.3,455.4,192.8,400,192.8z"/>
	</g>
	<g class="st1">
		<path d="M400,591.7c-51.2,0-99.3-19.9-135.5-56.1c-36.2-36.2-56.1-84.3-56.1-135.5c0-51.2,19.9-99.3,56.1-135.5
			c36.2-36.2,84.3-56.1,135.5-56.1c51.2,0,99.3,19.9,135.5,56.1c36.2,36.2,56.1,84.3,56.1,135.5c0,51.2-19.9,99.3-56.1,135.5
			C499.3,571.7,451.2,591.7,400,591.7z M400,209.7c-50.8,0-98.6,19.8-134.5,55.7c-35.9,35.9-55.7,83.7-55.7,134.5
			c0,50.8,19.8,98.6,55.7,134.5c35.9,35.9,83.7,55.7,134.5,55.7c50.8,0,98.6-19.8,134.5-55.7c35.9-35.9,55.7-83.7,55.7-134.5
			c0-50.8-19.8-98.6-55.7-134.5C498.6,229.5,450.8,209.7,400,209.7z"/>
	</g>
	<g class="st1">
		<g>
			<path d="M401.3,114.3c-0.7,0.6-1.6,1.6-2.8,3.1c-0.6,1.4-2.3,5.7-4.9,13c-2.7,7.5-4.1,11.6-4.1,12.3c0,0.7,1.3,5.9,4,15.8
				c2.6,9.6,4.2,15.2,4.8,16.9c0.4,1,0.9,1.9,1.6,2.7c0.7,0.8,1.2,1.4,1.3,1.8c-0.5-0.1-1.3-0.1-2.2,0c-1.1,0-1.8,0-2.2,0
				c-2.7,0-4.7-0.2-6-0.6c0.6-1.4,0.9-2.3,0.9-2.7c0-0.4-0.9-3.9-2.8-10.4c-1.8-6.2-3-9.9-3.6-11.2h-0.1c-0.1,0-0.2,0.1-0.3,0.3
				c-0.7,1.6-2.1,5.2-4.2,10.8c-2.2,6-3.3,9.5-3.3,10.3c0,0.4,0.2,1.4,0.7,2.9c-0.3,0.1-0.7,0.1-1.2,0.1c-0.6,0-1.5,0-2.6-0.1
				c-1.2-0.1-2-0.1-2.6-0.1c1-0.1,1.8-1,2.5-2.5c0.6-1.6,2.3-6.5,5.2-14.8c3-8.7,4.6-13.3,4.6-13.6c0-0.8-2.1-8.2-6.4-22.2
				c-0.5-2.1-1.1-4.2-1.7-6.3c-0.7-2.5-1.5-4.3-2.6-5.5c2.4-0.5,4.2-0.7,5.5-0.7c-0.2,0,1.3,0.3,4.4,1c-0.8,0.5-1.1,1.3-1.1,2.2
				c0,1,0.9,4.3,2.6,10.1c1.6,5.5,2.7,8.9,3.4,10.3c0.5-0.8,1.1-2.2,1.9-4.1c0.5-1.4,1.5-4.2,3-8.3c1.7-4.8,2.5-7.4,2.5-8
				c0-0.5-0.5-1.3-1.6-2.3c1.6-0.6,2.9-0.9,4-0.9C398.4,113.6,399.5,113.8,401.3,114.3z"/>
		</g>
		<g>
			<path d="M414.6,179.5c-0.6,0.1-1.3,0.2-2,0.2c-0.6,0-3.6-0.3-8.8-0.8c0.4-0.5,1.1-1.4,2-2.6c0-0.4,0-0.9,0-1.4c0-0.8,0-2-0.1-3.5
				c-0.1-1.6-0.1-2.8-0.1-3.5c0-0.8,0.1-1.9,0.2-3.4c0.2-1.5,0.2-2.6,0.2-3.4v-40.5c0-1.1-0.2-2.3-0.6-3.8c-0.5-1.7-1.1-2.6-1.7-2.7
				c3.9-0.5,6.4-0.8,7.5-0.8c0.6,0,1.6,0.2,2.8,0.7c-0.1,0.3-0.5,1-1.2,2.1c-0.5,0.8-0.8,1.5-0.8,2.2v53.7c0,2.2,0.2,3.8,0.5,4.8
				C413.1,177.1,413.8,178.1,414.6,179.5z"/>
		</g>
		<g>
			<path d="M428.2,179.5c-0.6,0.1-1.3,0.2-2,0.2c-0.6,0-3.6-0.3-8.8-0.8c0.4-0.5,1.1-1.4,2-2.6c0-0.4,0-0.9,0-1.4c0-0.8,0-2-0.1-3.5
				c-0.1-1.6-0.1-2.8-0.1-3.5c0-0.8,0.1-1.9,0.2-3.4c0.2-1.5,0.2-2.6,0.2-3.4v-40.5c0-1.1-0.2-2.3-0.6-3.8c-0.5-1.7-1.1-2.6-1.7-2.7
				c3.9-0.5,6.4-0.8,7.5-0.8c0.6,0,1.6,0.2,2.8,0.7c-0.1,0.3-0.5,1-1.2,2.1c-0.5,0.8-0.8,1.5-0.8,2.2v53.7c0,2.2,0.2,3.8,0.5,4.8
				C426.7,177.1,427.4,178.1,428.2,179.5z"/>
		</g>
	</g>
	<g class="st1">
		<g>
			<path d="M622.3,392.3c-0.1-0.6-0.2-1.3-0.2-2c0-0.6,0.3-3.6,0.8-8.8c0.5,0.4,1.4,1.1,2.6,2c0.4,0,0.9,0,1.4,0c0.8,0,2,0,3.5-0.1
				c1.6-0.1,2.8-0.1,3.5-0.1c0.8,0,1.9,0.1,3.4,0.2c1.5,0.2,2.6,0.2,3.4,0.2h40.5c1.1,0,2.3-0.2,3.8-0.6c1.7-0.5,2.6-1.1,2.7-1.7
				c0.5,3.9,0.8,6.4,0.8,7.5c0,0.6-0.2,1.6-0.7,2.8c-0.3-0.1-1-0.5-2.1-1.2c-0.8-0.5-1.5-0.8-2.2-0.8h-53.7c-2.2,0-3.8,0.2-4.8,0.5
				C624.6,390.8,623.6,391.5,622.3,392.3z"/>
		</g>
		<g>
			<path d="M622.3,405.9c-0.1-0.6-0.2-1.3-0.2-2c0-0.6,0.3-3.6,0.8-8.8c0.5,0.4,1.4,1.1,2.6,2c0.4,0,0.9,0,1.4,0c0.8,0,2,0,3.5-0.1
				c1.6-0.1,2.8-0.1,3.5-0.1c0.8,0,1.9,0.1,3.4,0.2c1.5,0.2,2.6,0.2,3.4,0.2h40.5c1.1,0,2.3-0.2,3.8-0.6c1.7-0.5,2.6-1.1,2.7-1.7
				c0.5,3.9,0.8,6.4,0.8,7.5c0,0.6-0.2,1.6-0.7,2.8c-0.3-0.1-1-0.5-2.1-1.2c-0.8-0.5-1.5-0.8-2.2-0.8h-53.7c-2.2,0-3.8,0.2-4.8,0.5
				C624.6,404.5,623.6,405.1,622.3,405.9z"/>
		</g>
		<g>
			<path d="M622.3,419.6c-0.1-0.6-0.2-1.3-0.2-2c0-0.6,0.3-3.6,0.8-8.8c0.5,0.4,1.4,1.1,2.6,2c0.4,0,0.9,0,1.4,0c0.8,0,2,0,3.5-0.1
				c1.6-0.1,2.8-0.1,3.5-0.1c0.8,0,1.9,0.1,3.4,0.2c1.5,0.2,2.6,0.2,3.4,0.2h40.5c1.1,0,2.3-0.2,3.8-0.6c1.7-0.5,2.6-1.1,2.7-1.7
				c0.5,3.9,0.8,6.4,0.8,7.5c0,0.6-0.2,1.6-0.7,2.8c-0.3-0.1-1-0.5-2.1-1.2c-0.8-0.5-1.5-0.8-2.2-0.8h-53.7c-2.2,0-3.8,0.2-4.8,0.5
				C624.6,418.1,623.6,418.8,622.3,419.6z"/>
		</g>
	</g>
	<g class="st1">
		<g>
			<path d="M180.6,401.9c0.1,0.6,0.2,1.3,0.2,2c0,0.6-0.3,3.6-0.8,8.8c-0.5-0.4-1.4-1.1-2.6-2c-0.4,0-0.9,0-1.4,0
				c-0.8,0-2,0-3.5,0.1c-1.6,0.1-2.8,0.1-3.5,0.1c-0.8,0-1.9-0.1-3.4-0.2c-1.5-0.2-2.6-0.2-3.4-0.2h-40.5c-1.1,0-2.3,0.2-3.8,0.6
				c-1.7,0.5-2.6,1.1-2.7,1.7c-0.5-3.9-0.8-6.4-0.8-7.5c0-0.6,0.2-1.6,0.7-2.8c0.3,0.1,1,0.5,2.1,1.2c0.8,0.5,1.5,0.8,2.2,0.8h53.7
				c2.2,0,3.8-0.2,4.8-0.5C178.2,403.4,179.2,402.7,180.6,401.9z"/>
		</g>
		<g>
			<path d="M115.4,370.7c0.6,0.7,1.6,1.6,3.1,2.8c1.4,0.6,5.7,2.3,13,4.9c7.5,2.7,11.6,4.1,12.3,4.1c0.7,0,5.9-1.3,15.8-4
				c9.6-2.6,15.2-4.2,16.9-4.8c1-0.4,1.9-0.9,2.7-1.6c0.8-0.7,1.4-1.2,1.8-1.3c-0.1,0.5-0.1,1.3,0,2.2c0,1.1,0,1.8,0,2.2
				c0,2.7-0.2,4.7-0.6,6c-1.4-0.6-2.3-0.9-2.7-0.9c-0.4,0-3.9,0.9-10.4,2.8c-6.2,1.8-10,3-11.2,3.6v0.1c0,0.1,0.1,0.2,0.3,0.3
				c1.6,0.7,5.2,2.1,10.8,4.2c6,2.2,9.5,3.3,10.3,3.3c0.4,0,1.4-0.2,2.9-0.7c0.1,0.3,0.1,0.7,0.1,1.2c0,0.6,0,1.5-0.1,2.6
				c-0.1,1.2-0.1,2-0.1,2.6c-0.1-1-1-1.8-2.5-2.5c-1.6-0.6-6.5-2.3-14.8-5.2c-8.7-3-13.3-4.6-13.6-4.6c-0.8,0-8.2,2.1-22.2,6.4
				c-2.1,0.5-4.2,1.1-6.3,1.7c-2.5,0.7-4.3,1.5-5.5,2.6c-0.5-2.4-0.7-4.2-0.7-5.5c0,0.2,0.3-1.3,1-4.4c0.5,0.8,1.3,1.1,2.2,1.1
				c1,0,4.3-0.9,10.1-2.6c5.5-1.6,8.9-2.7,10.3-3.4c-0.8-0.5-2.2-1.1-4.1-1.9c-1.4-0.5-4.2-1.5-8.3-3c-4.8-1.7-7.4-2.5-8-2.5
				c-0.5,0-1.3,0.5-2.3,1.6c-0.6-1.6-0.9-2.9-0.9-4C114.7,373.6,114.9,372.5,115.4,370.7z"/>
		</g>
	</g>
	<g class="st1">
		<g>
			<path d="M153.9,253.2c0.2,0.9,0.7,2.2,1.5,3.9c0.9,1.2,4,4.6,9.3,10.3c5.4,5.9,8.5,9,9,9.3c0.6,0.3,5.9,1.5,15.9,3.6
				c9.7,2.1,15.4,3.2,17.2,3.5c1,0.1,2.1,0,3.1-0.2c1.1-0.3,1.8-0.4,2.2-0.3c-0.3,0.5-0.6,1.1-1,2c-0.5,1-0.8,1.6-1,1.9
				c-1.3,2.4-2.4,4.1-3.3,5c-1-1.1-1.6-1.8-2-2c-0.4-0.2-3.9-1-10.5-2.2c-6.3-1.3-10.2-1.9-11.6-2l-0.1,0.1c-0.1,0.1,0,0.3,0.1,0.4
				c1.1,1.4,3.6,4.2,7.7,8.7c4.4,4.7,6.9,7.3,7.7,7.7c0.4,0.2,1.3,0.4,2.9,0.7c-0.1,0.3-0.2,0.7-0.5,1.1c-0.3,0.5-0.7,1.3-1.3,2.3
				c-0.6,1-1,1.8-1.3,2.3c0.4-1,0-2.1-1.1-3.3c-1.1-1.2-4.7-5.1-10.8-11.4c-6.4-6.7-9.7-10.1-10-10.3c-0.7-0.4-8.3-1.9-22.7-4.5
				c-2.1-0.5-4.2-0.9-6.3-1.4c-2.5-0.5-4.5-0.6-6-0.2c0.7-2.3,1.3-4.1,1.9-5.2c-0.1,0.2,0.9-1,2.9-3.4c0.1,0.9,0.6,1.6,1.5,2
				c0.9,0.4,4.2,1.2,10.2,2.4c5.6,1.1,9.2,1.7,10.7,1.7c-0.5-0.8-1.4-2-2.8-3.6c-1-1.1-3-3.3-6-6.5c-3.5-3.7-5.5-5.6-6-5.9
				c-0.4-0.2-1.4-0.1-2.8,0.4c0.2-1.7,0.5-3,1.1-4C151.9,255.5,152.7,254.6,153.9,253.2z"/>
		</g>
	</g>
	<g class="st1">
		<g>
			<path d="M243.2,160.4c-0.2,0.9-0.3,2.3-0.4,4.2c0.3,1.5,1.5,6,3.5,13.4c2.1,7.7,3.4,11.9,3.7,12.4c0.4,0.5,4.5,4.1,12.4,10.5
				c7.6,6.3,12.2,10,13.7,11.1c0.8,0.6,1.8,1,2.9,1.2c1.1,0.3,1.8,0.5,2.1,0.7c-0.5,0.3-1.1,0.7-1.8,1.3c-0.9,0.6-1.5,1-1.8,1.2
				c-2.2,1.6-4,2.6-5.2,2.9c-0.3-1.5-0.6-2.4-0.9-2.7c-0.3-0.4-3-2.6-8.3-6.8c-5.1-4-8.2-6.4-9.4-7.1l-0.1,0.1
				c-0.1,0.1-0.1,0.2-0.1,0.4c0.3,1.7,1.3,5.4,2.9,11.3c1.7,6.2,2.8,9.6,3.3,10.3c0.2,0.3,1,1,2.3,1.9c-0.2,0.2-0.5,0.5-0.9,0.8
				c-0.5,0.3-1.2,0.8-2.2,1.4c-1,0.6-1.7,1.1-2.2,1.4c0.8-0.7,1-1.8,0.6-3.5c-0.4-1.6-1.8-6.6-4.3-15.1c-2.6-8.9-3.9-13.5-4.1-13.8
				c-0.5-0.7-6.5-5.5-18.1-14.5c-1.6-1.4-3.3-2.8-5-4.1c-2-1.6-3.7-2.6-5.2-3c1.7-1.8,3-3,4.1-3.8c-0.1,0.1,1.2-0.5,4.1-1.7
				c-0.3,0.9-0.2,1.7,0.4,2.5c0.6,0.8,3.2,3,7.9,6.8c4.5,3.6,7.4,5.7,8.7,6.5c-0.1-1-0.3-2.5-0.8-4.5c-0.4-1.4-1.1-4.3-2.3-8.6
				c-1.4-4.9-2.3-7.5-2.6-7.9c-0.3-0.4-1.2-0.7-2.7-1c0.9-1.4,1.9-2.4,2.8-3.1C240.4,161.5,241.5,161.1,243.2,160.4z"/>
		</g>
		<g>
			<path d="M291.7,206c-0.4,0.4-0.9,0.9-1.5,1.3c-0.5,0.4-3.1,1.8-7.7,4.4c0.1-0.7,0.1-1.8,0.1-3.3c-0.2-0.3-0.5-0.7-0.8-1.2
				c-0.4-0.6-1.2-1.6-2.1-2.8c-1-1.3-1.7-2.2-2.1-2.8c-0.4-0.6-1-1.6-1.8-2.9c-0.7-1.3-1.3-2.3-1.8-2.9l-23.4-33.1
				c-0.6-0.9-1.5-1.8-2.7-2.7c-1.4-1.1-2.4-1.5-2.9-1.2c2.8-2.7,4.7-4.3,5.7-5c0.5-0.4,1.4-0.7,2.7-1c0.1,0.3,0.2,1.1,0.2,2.4
				c0,0.9,0.2,1.7,0.6,2.3l31,43.8c1.3,1.8,2.3,3,3.1,3.6C289.1,204.9,290.2,205.3,291.7,206z"/>
		</g>
	</g>
	<g class="st1">
		<g>
			<path d="M602.4,491.8c0.2-0.6,0.4-1.2,0.8-1.9c0.3-0.5,2-3,5-7.3c0.3,0.7,0.7,1.7,1.3,3c0.4,0.2,0.8,0.4,1.3,0.7
				c0.7,0.4,1.7,0.9,3.2,1.6c1.4,0.7,2.5,1.2,3.2,1.6c0.7,0.4,1.6,1,2.9,1.8c1.2,0.9,2.2,1.5,2.9,1.8l35.5,19.5
				c0.9,0.5,2.1,0.9,3.6,1.3c1.8,0.4,2.8,0.3,3.2-0.2c-1.4,3.6-2.4,6-2.9,7c-0.3,0.5-1,1.3-2,2.1c-0.2-0.2-0.6-0.9-1.2-2.1
				c-0.4-0.8-0.9-1.4-1.6-1.8l-47-25.9c-1.9-1.1-3.4-1.7-4.4-1.9C605.1,491.6,604,491.7,602.4,491.8z"/>
		</g>
		<g>
			<path d="M639.6,560.4c-0.6-1.3-1.2-2.3-1.9-3c-0.7-0.7-2.4-2.2-5-4.6c-2.6-2.3-6.5-5.8-11.8-10.3c-1.4-1.1-3.3-2.8-5.9-5.1
				c-0.3-0.4-0.9-1.1-1.7-2c-0.8-0.9-2-1.9-3.5-3.1c-2.7-2.2-6-5.1-9.9-8.5c-3.2-2.9-6.3-5.8-9.5-8.7c0.1-1.1,0.4-2.2,0.9-3.1
				c0.4-0.7,1.1-1.6,2.2-2.5c2.5,0.5,5.4,1.2,8.9,2.3c2.9,0.9,5.9,1.7,8.8,2.6c1.4,0.2,3.6,0.7,6.4,1.3c6.3,1.7,15.9,4.4,28.6,7.8
				c0.1,0,1.7,0.5,4.8,1.6c2,0.7,3.5,1.1,4.6,1.1c0.5,0,1-0.1,1.6-0.5c0.9-0.4,1.4-0.7,1.5-0.8l1.2,0.6l0,0.2
				c-0.2,0.3-0.5,0.7-0.9,1.2c-0.5,0.5-0.8,0.8-0.9,1.1c-0.3,0.5-0.7,1.4-1.1,2.5c-0.4,1.1-0.7,1.9-1,2.4c-0.2,0.3-0.6,0.6-1.3,1
				c-1.1-1.1-1.8-1.7-1.9-1.8c-0.2-0.1-1-0.3-2.3-0.5c-1.6-0.3-2.5-0.4-2.7-0.5c-5.6-1.4-12.7-3.4-21.5-5.8
				c-11.7-3.3-18.9-5.4-21.5-6.1c-1.6-0.4-3.4-0.7-5.4-0.8c-0.1,0.8,1.9,2.8,6,6.2c2.4,1.9,5.4,4.6,9.1,8c4.7,4.3,7.7,7,9,8.2
				c0.4,0.3,3.2,2.9,8.4,7.7c4.7,4.3,7.1,6.5,7.4,6.7c0.8,0.5,2,0.5,3.4,0.1c-0.3,1.4-0.9,2.9-1.7,4.4c-0.2,0.3-0.3,0.5-0.5,0.7
				C640.3,560.3,640,560.3,639.6,560.4z"/>
		</g>
	</g>
	<g class="st1">
		<g>
			<path d="M534.9,656.9c0.1-1.4,0.1-2.6-0.2-3.6c-0.3-1-1-3.1-2.1-6.4c-1.1-3.3-2.9-8.2-5.4-14.7c-0.7-1.6-1.5-4.1-2.7-7.3
				c-0.1-0.5-0.3-1.4-0.6-2.5c-0.3-1.2-0.8-2.6-1.6-4.4c-1.3-3.3-2.8-7.3-4.5-12.2c-1.4-4.1-2.8-8.2-4.2-12.2c0.6-1,1.4-1.7,2.2-2.3
				c0.7-0.5,1.8-0.8,3.1-1.1c1.9,1.6,4.2,3.7,6.7,6.3c2.2,2.2,4.3,4.3,6.4,6.5c1.2,0.9,2.8,2.3,5,4.2c4.7,4.6,11.8,11.5,21.3,20.7
				c0.1,0.1,1.2,1.3,3.4,3.7c1.4,1.6,2.6,2.6,3.5,3.2c0.4,0.3,0.9,0.4,1.6,0.3c1,0,1.5,0,1.7,0.1l0.7,1.1l-0.1,0.1
				c-0.3,0.2-0.8,0.4-1.4,0.6c-0.6,0.2-1.1,0.4-1.3,0.5c-0.5,0.3-1.2,0.9-2.1,1.7c-0.9,0.8-1.6,1.3-2.1,1.6
				c-0.3,0.2-0.8,0.3-1.6,0.2c-0.5-1.6-0.7-2.4-0.8-2.5c-0.1-0.2-0.7-0.7-1.8-1.5c-1.3-1-2-1.6-2.1-1.7c-4.2-3.9-9.5-9.1-16-15.4
				c-8.7-8.6-14-13.8-15.9-15.7c-1.2-1.1-2.7-2.2-4.4-3.3c-0.4,0.6,0.3,3.4,2.3,8.3c1.2,2.9,2.6,6.7,4.1,11.4c2,6,3.4,9.8,3.9,11.5
				c0.2,0.5,1.4,4,3.6,10.8c2,6,3.1,9.1,3.3,9.4c0.5,0.8,1.5,1.4,3,1.7c-0.9,1.1-2.1,2.1-3.6,3c-0.3,0.2-0.5,0.3-0.8,0.4
				C535.6,657.1,535.4,657,534.9,656.9z"/>
		</g>
	</g>
	<g class="st1">
		<g>
			<path d="M188.4,476.5c-1,0.2-2.5,0.8-4.4,1.9l-47,25.9c-0.6,0.3-1.2,0.9-1.6,1.8c-0.6,1.1-1,1.8-1.2,2.1c-1-0.9-1.7-1.6-2-2.1
				c-0.6-1-1.5-3.4-2.9-7c0.4,0.5,1.4,0.6,3.2,0.2c1.5-0.3,2.6-0.8,3.6-1.3l35.5-19.5c0.7-0.4,1.6-1,2.9-1.8
				c1.2-0.9,2.2-1.5,2.9-1.8c0.7-0.4,1.7-0.9,3.2-1.6c1.4-0.7,2.5-1.2,3.2-1.6c0.5-0.3,0.9-0.5,1.3-0.7c0.6-1.4,1.1-2.4,1.3-3
				c3,4.3,4.6,6.8,5,7.3c0.4,0.7,0.6,1.3,0.8,1.9C190.3,476.9,189.2,476.8,188.4,476.5z"/>
		</g>
		<g>
			<path d="M195,488.5c-1,0.2-2.5,0.8-4.4,1.9l-47,25.9c-0.6,0.3-1.2,0.9-1.6,1.8c-0.6,1.1-1,1.8-1.2,2.1c-1-0.9-1.7-1.6-2-2.1
				c-0.6-1-1.5-3.4-2.9-7c0.4,0.5,1.4,0.6,3.2,0.2c1.5-0.3,2.6-0.8,3.6-1.3l35.5-19.5c0.7-0.4,1.6-1,2.9-1.8
				c1.2-0.9,2.2-1.5,2.9-1.8c0.7-0.4,1.7-0.9,3.2-1.6c1.4-0.7,2.5-1.2,3.2-1.6c0.5-0.3,0.9-0.5,1.3-0.7c0.6-1.4,1.1-2.4,1.3-3
				c3,4.3,4.6,6.8,5,7.3c0.4,0.7,0.6,1.3,0.8,1.9C196.9,488.8,195.8,488.7,195,488.5z"/>
		</g>
		<g>
			<path d="M201.6,500.5c-1,0.2-2.5,0.8-4.4,1.9l-47,25.9c-0.6,0.3-1.2,0.9-1.6,1.8c-0.6,1.1-1,1.8-1.2,2.1c-1-0.9-1.7-1.6-2-2.1
				c-0.6-1-1.5-3.4-2.9-7c0.4,0.5,1.4,0.6,3.2,0.2c1.5-0.3,2.6-0.8,3.6-1.3l35.5-19.5c0.7-0.4,1.6-1,2.9-1.8
				c1.2-0.9,2.2-1.5,2.9-1.8c0.7-0.4,1.7-0.9,3.2-1.6c1.4-0.7,2.5-1.2,3.2-1.6c0.5-0.3,0.9-0.5,1.3-0.7c0.6-1.4,1.1-2.4,1.3-3
				c3,4.3,4.6,6.8,5,7.3c0.4,0.7,0.6,1.3,0.8,1.9C203.5,500.8,202.3,500.7,201.6,500.5z"/>
		</g>
		<g>
			<path d="M167,569.4c-0.2-0.2-0.3-0.4-0.5-0.7c-0.8-1.5-1.4-2.9-1.7-4.4c1.5,0.4,2.6,0.4,3.4-0.1c0.3-0.1,2.7-2.4,7.4-6.7
				c5.2-4.8,8-7.4,8.4-7.7c1.3-1.2,4.3-3.9,9-8.2c3.7-3.4,6.7-6.1,9.1-8c4.1-3.4,6.1-5.4,6-6.2c-2,0.1-3.8,0.3-5.4,0.8
				c-2.6,0.7-9.8,2.7-21.5,6.1c-8.7,2.5-15.9,4.4-21.5,5.8c-0.2,0-1.1,0.2-2.7,0.5c-1.3,0.2-2.1,0.4-2.3,0.5
				c-0.1,0.1-0.7,0.7-1.9,1.8c-0.7-0.3-1.2-0.6-1.3-1c-0.3-0.5-0.6-1.3-1-2.4c-0.4-1.1-0.8-1.9-1.1-2.5c-0.2-0.3-0.5-0.6-0.9-1.1
				c-0.5-0.5-0.8-0.9-0.9-1.2l0-0.2l1.2-0.6c0.2,0.1,0.7,0.3,1.5,0.8c0.6,0.4,1.2,0.5,1.6,0.5c1.1,0,2.6-0.4,4.6-1.1
				c3.1-1,4.6-1.5,4.8-1.6c12.7-3.5,22.3-6.1,28.6-7.8c2.8-0.6,4.9-1,6.4-1.3c2.9-0.9,5.9-1.8,8.8-2.6c3.5-1,6.4-1.8,8.9-2.3
				c1,0.9,1.8,1.7,2.2,2.5c0.5,0.9,0.8,1.9,0.9,3.1c-3.2,2.9-6.4,5.8-9.5,8.7c-3.8,3.4-7.1,6.3-9.9,8.5c-1.5,1.2-2.6,2.2-3.5,3.1
				c-0.8,0.9-1.4,1.5-1.7,2c-2.5,2.3-4.5,4-5.9,5.1c-5.3,4.5-9.2,8-11.8,10.3c-2.6,2.3-4.2,3.9-5,4.6c-0.7,0.7-1.3,1.7-1.9,3
				C167.4,569.4,167.1,569.4,167,569.4z"/>
		</g>
	</g>
	<g class="st1">
		<g>
			<path d="M264.2,580.2c-0.8,0.6-1.8,1.9-2.9,3.8l-28.7,45.4c-0.4,0.6-0.6,1.4-0.5,2.3c0,1.3,0,2.1-0.1,2.4
				c-1.3-0.3-2.2-0.6-2.8-0.9c-1-0.6-3-2.2-5.9-4.7c0.6,0.3,1.5-0.2,2.9-1.4c1.1-1,2-1.9,2.5-2.9l21.7-34.2c0.4-0.7,1-1.7,1.6-3
				c0.7-1.3,1.2-2.3,1.6-3c0.4-0.7,1.1-1.6,2-2.9c0.9-1.3,1.6-2.3,2-2.9c0.3-0.5,0.5-0.9,0.8-1.2c-0.1-1.5-0.2-2.6-0.3-3.3
				c4.7,2.4,7.3,3.7,7.9,4c0.6,0.4,1.2,0.8,1.6,1.2C266,579.6,265,580,264.2,580.2z"/>
		</g>
		<g>
			<path d="M275.8,587.5c-0.8,0.6-1.8,1.9-2.9,3.8l-28.7,45.4c-0.4,0.6-0.6,1.4-0.5,2.3c0,1.3,0,2.1-0.1,2.4
				c-1.3-0.3-2.2-0.6-2.8-0.9c-1-0.6-3-2.2-5.9-4.7c0.6,0.3,1.5-0.2,2.9-1.4c1.1-1,2-1.9,2.5-2.9l21.7-34.2c0.4-0.7,1-1.7,1.6-3
				c0.7-1.3,1.2-2.3,1.6-3c0.4-0.7,1.1-1.6,2-2.9c0.9-1.3,1.6-2.3,2-2.9c0.3-0.5,0.5-0.9,0.8-1.2c-0.1-1.5-0.2-2.6-0.3-3.3
				c4.7,2.4,7.3,3.7,7.9,4c0.6,0.4,1.2,0.8,1.6,1.2C277.6,586.9,276.5,587.3,275.8,587.5z"/>
		</g>
		<g>
			<path d="M278.7,664.6c-0.3-0.1-0.5-0.2-0.8-0.4c-1.4-0.9-2.6-1.9-3.6-3c1.5-0.3,2.5-0.9,3-1.7c0.2-0.3,1.2-3.4,3.3-9.4
				c2.2-6.7,3.4-10.3,3.6-10.8c0.6-1.7,1.9-5.5,3.9-11.5c1.6-4.7,2.9-8.5,4.1-11.4c1.9-4.9,2.7-7.7,2.3-8.3c-1.7,1-3.2,2.1-4.4,3.3
				c-1.9,1.9-7.2,7.1-15.9,15.7c-6.5,6.4-11.8,11.5-16,15.4c-0.1,0.1-0.8,0.7-2.1,1.7c-1.1,0.8-1.6,1.3-1.8,1.5
				c-0.1,0.1-0.3,0.9-0.8,2.5c-0.8,0.1-1.3,0-1.6-0.2c-0.5-0.3-1.2-0.9-2.1-1.6c-0.9-0.8-1.6-1.3-2.1-1.7c-0.3-0.2-0.7-0.3-1.3-0.5
				c-0.6-0.2-1.1-0.4-1.4-0.6l-0.1-0.1l0.7-1.1c0.2,0,0.8-0.1,1.7-0.1c0.7,0,1.3-0.1,1.6-0.3c0.9-0.5,2.1-1.6,3.5-3.2
				c2.2-2.4,3.3-3.6,3.4-3.7c9.5-9.2,16.6-16.1,21.3-20.7c2.2-1.9,3.8-3.3,5-4.2c2.1-2.2,4.3-4.4,6.4-6.5c2.5-2.6,4.8-4.7,6.7-6.3
				c1.4,0.3,2.4,0.7,3.1,1.1c0.9,0.6,1.6,1.3,2.2,2.3c-1.4,4.1-2.8,8.1-4.2,12.2c-1.7,4.9-3.2,8.9-4.5,12.2
				c-0.7,1.7-1.3,3.2-1.6,4.4c-0.3,1.2-0.5,2-0.6,2.6c-1.1,3.3-2,5.7-2.7,7.3c-2.4,6.5-4.2,11.4-5.4,14.7c-1.1,3.3-1.9,5.4-2.1,6.4
				c-0.3,1-0.4,2.1-0.2,3.6C279,664.4,278.8,664.5,278.7,664.6z"/>
		</g>
	</g>
	<g class="st1">
		<g>
			<path d="M602.3,301.9c1-0.2,2.5-0.8,4.4-1.9l47-25.9c0.6-0.3,1.2-0.9,1.6-1.8c0.6-1.1,1-1.8,1.2-2.1c1,0.9,1.7,1.6,2,2.1
				c0.6,1,1.5,3.4,2.9,7c-0.4-0.5-1.4-0.6-3.2-0.2c-1.5,0.3-2.6,0.8-3.6,1.3l-35.5,19.5c-0.7,0.4-1.6,1-2.9,1.8
				c-1.2,0.9-2.2,1.5-2.9,1.8c-0.7,0.4-1.7,0.9-3.2,1.6c-1.4,0.7-2.5,1.2-3.1,1.6c-0.5,0.3-0.9,0.5-1.3,0.7c-0.6,1.4-1,2.4-1.3,3
				c-3-4.3-4.6-6.8-5-7.3c-0.4-0.7-0.6-1.3-0.8-1.9C600.5,301.6,601.6,301.7,602.3,301.9z"/>
		</g>
		<g>
			<path d="M595.8,290c1-0.2,2.5-0.8,4.4-1.9l47-25.9c0.6-0.3,1.2-0.9,1.6-1.8c0.6-1.1,1-1.8,1.2-2.1c1,0.9,1.7,1.6,2,2.1
				c0.6,1,1.5,3.4,2.9,7c-0.4-0.5-1.4-0.6-3.2-0.2c-1.5,0.3-2.6,0.8-3.6,1.3l-35.5,19.5c-0.7,0.4-1.6,1-2.9,1.8
				c-1.2,0.9-2.2,1.5-2.9,1.8c-0.7,0.4-1.7,0.9-3.2,1.6c-1.4,0.7-2.5,1.2-3.2,1.6c-0.5,0.3-0.9,0.5-1.3,0.7c-0.6,1.4-1.1,2.4-1.3,3
				c-3-4.3-4.6-6.8-5-7.3c-0.4-0.7-0.6-1.3-0.8-1.9C593.9,289.6,595,289.8,595.8,290z"/>
		</g>
	</g>
	<g class="st1">
		<g>
			<path d="M527.7,216.1c0.8-0.6,1.8-1.8,3.1-3.6l30.5-44.2c0.4-0.6,0.6-1.4,0.6-2.3c0-1.3,0.1-2.1,0.2-2.4c1.3,0.3,2.2,0.7,2.7,1
				c1,0.7,2.9,2.3,5.7,4.9c-0.5-0.3-1.5,0.1-2.9,1.3c-1.1,0.9-2,1.9-2.6,2.8l-23,33.3c-0.4,0.6-1,1.6-1.7,2.9
				c-0.7,1.3-1.3,2.3-1.7,2.9c-0.4,0.6-1.1,1.6-2.1,2.9c-1,1.3-1.7,2.2-2.1,2.9c-0.3,0.4-0.6,0.8-0.8,1.2c0.1,1.5,0.1,2.6,0.2,3.3
				c-4.6-2.5-7.2-4-7.7-4.3c-0.6-0.4-1.1-0.9-1.6-1.3C525.9,216.6,527,216.2,527.7,216.1z"/>
		</g>
	</g>
	<g class="st1">
		<g>
			<path d="M387.4,686.1c0.9-1.1,1.5-2.2,1.7-3.1c0.3-1,0.8-3.1,1.6-6.5c0.8-3.4,1.9-8.5,3.4-15.3c0.3-1.7,0.9-4.3,1.7-7.6
				c0.2-0.5,0.5-1.3,0.9-2.5c0.4-1.2,0.7-2.7,1-4.5c0.6-3.5,1.5-7.7,2.7-12.7c1-4.2,2-8.4,3-12.5c1-0.5,2.1-0.7,3.1-0.7
				c0.9,0,1.9,0.2,3.2,0.7c0.8,2.4,1.5,5.3,2.3,8.9c0.7,3,1.3,6,2,9c0.5,1.4,1.1,3.4,2,6.2c1.5,6.4,3.8,16,6.9,28.9
				c0,0.1,0.4,1.8,0.9,4.9c0.4,2.1,0.8,3.6,1.3,4.6c0.2,0.4,0.6,0.8,1.2,1.2c0.8,0.5,1.3,0.9,1.4,1v1.3l-0.1,0.1
				c-0.4,0-0.9-0.1-1.5-0.3c-0.6-0.2-1.1-0.3-1.4-0.3c-0.6,0-1.5,0.1-2.7,0.3c-1.2,0.2-2,0.3-2.6,0.3c-0.4,0-0.9-0.2-1.5-0.7
				c0.4-1.6,0.7-2.4,0.7-2.5c0-0.2-0.2-1-0.7-2.2c-0.5-1.6-0.8-2.4-0.9-2.6c-1.4-5.6-3.2-12.8-5.2-21.6c-2.7-11.9-4.4-19.2-5-21.8
				c-0.4-1.6-1.1-3.3-1.9-5.1c-0.7,0.3-1.6,3-2.6,8.2c-0.5,3-1.4,7-2.6,11.8c-1.5,6.2-2.4,10.1-2.8,11.8c-0.1,0.5-1,4.2-2.7,11
				c-1.5,6.2-2.3,9.4-2.3,9.7c0,1,0.5,2,1.6,3c-1.4,0.4-2.9,0.6-4.6,0.6c-0.3,0-0.6,0-0.9-0.1C387.8,686.7,387.7,686.4,387.4,686.1z
				"/>
		</g>
		<g>
			<path d="M372.2,620.4c0.6-0.1,1.3-0.2,2-0.2c0.6,0,3.6,0.3,8.8,0.8c-0.4,0.5-1.1,1.4-2,2.6c0,0.4,0,0.9,0,1.4c0,0.8,0,2,0.1,3.5
				c0.1,1.6,0.1,2.8,0.1,3.5c0,0.8-0.1,1.9-0.2,3.4c-0.2,1.5-0.2,2.6-0.2,3.4v40.5c0,1.1,0.2,2.3,0.6,3.8c0.5,1.7,1.1,2.6,1.7,2.7
				c-3.9,0.5-6.4,0.8-7.5,0.8c-0.6,0-1.6-0.2-2.8-0.7c0.1-0.3,0.5-1,1.2-2.1c0.5-0.8,0.8-1.5,0.8-2.2V628c0-2.2-0.2-3.8-0.5-4.8
				C373.6,622.7,373,621.7,372.2,620.4z"/>
		</g>
	</g>
	<g class="st1">
		<rect x="393.8" y="79" width="13" height="18"/>
	</g>
	<g class="st1">
		<rect x="393.8" y="702" width="13" height="18"/>
	</g>
	<g class="st1">
		<rect x="702.8" y="393" width="18.3" height="13"/>
	</g>
	<g class="st1">
		<rect x="667.7" y="249.6" transform="matrix(0.8877 -0.4604 0.4604 0.8877 -41.943 340.4049)" width="18.4" height="13.2"/>
	</g>
	<g class="st1">
		<rect x="570.4" y="138.3" transform="matrix(0.576 -0.8174 0.8174 0.576 127.3059 535.1657)" width="18.4" height="13.2"/>
	</g>
	<g class="st1">
		<rect x="215.3" y="134.7" transform="matrix(0.8174 -0.576 0.576 0.8174 -42.3872 154.0816)" width="13.2" height="18.4"/>
	</g>
	<g class="st1">
		<rect x="669.3" y="535.2" transform="matrix(0.4604 -0.8877 0.8877 0.4604 -118.5502 893.8284)" width="13.2" height="18.4"/>
	</g>
	<g class="st1">
		<rect x="556.9" y="656" transform="matrix(0.8174 -0.5761 0.5761 0.8174 -280.2915 446.0904)" width="13.2" height="18.4"/>
	</g>
	<g class="st1">
		<rect x="226.8" y="658.6" transform="matrix(0.576 -0.8174 0.8174 0.576 -443.6675 474.9549)" width="18.4" height="13.2"/>
	</g>
	<g class="st1">
		<g>
			<path class="st2" d="M399.4,179.5c2.7,4.8,5.6,44,6.4,57.3c0.7,12,4.5,21.1,7.6,26.6c1.2,2.2,2.3,3.7,3,4.6
				c1.4,1.4,2.6,2.9,3.5,4.6l0,0c4.2,7.4,3.5,16.5-1.6,23.2c-2.2,2.8-5,5-8.2,6.4l4,75.8l-19.1,0.9l0.6-75.7
				c-2.5-0.7-4.8-1.9-6.9-3.5c-2.3-1.8-4.2-3.9-5.6-6.4c-4.2-7.4-3.5-16.5,1.7-23.2c0.6-0.8,1.3-2.2,1.6-2.7l0-0.1
				c7.9-14.4,7.5-32.7,7.5-32.9c0-0.2,0-13.8,0.2-27.2c0.6-28.5,1.6-28.7,3.3-28.9C397.7,178.3,398.7,178.3,399.4,179.5z
				 M410.6,264.9c-3.3-5.8-7.3-15.3-8-28c-1.1-18.4-3-39.6-4.6-49.9c-0.7,9.8-1,29.4-1,47.4c0,0.7,0.5,19.3-7.8,34.5
				c-0.2,0.3-1,2.1-1.9,3.2c-4.4,5.7-4.9,13.4-1.4,19.7c1.2,2.1,2.8,3.9,4.7,5.4c2.1,1.6,4.4,2.7,6.9,3.2l1.3,0.3l0,1.3l-0.6,73.6
				l12.5-0.6l-4-74.9l1.1-0.4c3.1-1.2,5.9-3.2,7.9-5.8c4.4-5.7,4.9-13.4,1.4-19.7l0,0c-0.8-1.5-1.9-2.8-3.1-4l-0.2-0.2
				C413.1,269,411.9,267.3,410.6,264.9z"/>
		</g>
		<g>
			<path d="M412.3,376.5l-4-75.3c3.3-1.2,6.3-3.4,8.6-6.4c6.1-7.9,5.1-19-1.8-25.8c-2.3-3-9.9-14.5-11-32.2
				c-1.2-20.7-4.3-57.3-6.6-57c-2.3,0.3-2.2,54.5-2.2,54.5s0.6,18.8-7.7,33.7c0,0-0.9,1.9-1.7,3c-6.6,8.6-4.9,20.8,3.6,27.4
				c2.3,1.8,4.9,2.9,7.6,3.5l-0.6,75.3L412.3,376.5z"/>
		</g>
	</g>
	<g id="pointer_2_" class="st1">
		<g>
			<g>
				<path class="st2" d="M380,403.3l7.6,16.7l-41.1,15.7c0.3,2.7,0.1,5.3-0.7,7.9c-3.1,11-14.6,17.4-25.6,14.3l-0.1,0
					c-1.2-0.3-3-0.4-3-0.4c-16.4-2.1-24.4,1.3-24.5,1.3c-30.6,10.9-31.1,9.8-31.7,8.6c-0.5-1.2-1.4-3.6,26.5-16.7
					c12.8-6,16.4-14.1,18.3-18.5c0.4-1,0.8-1.7,1.1-2.4c4.1-9.6,14.7-14.7,24.7-11.8c3.4,1,6.5,2.8,9,5.3L380,403.3z M384.3,418.7
					l-5.5-12.1L340,426.3l-0.6-0.7c-2.3-2.5-5.3-4.4-8.5-5.3c-8.9-2.5-18.3,2-21.9,10.5l-0.1,0.2c-0.3,0.5-0.6,1.3-1,2.1
					c-2,4.7-5.8,13.3-19.5,19.7c-14.5,6.8-20.7,10.5-23.4,12.4c5.2-1.4,16.5-5.1,26.6-8.7c0.3-0.1,8.6-3.7,25.6-1.5
					c0,0,1.9,0.1,3.3,0.5l0.2,0.1c9.7,2.8,19.9-2.9,22.6-12.6c0.7-2.5,0.9-5.2,0.5-7.8l-0.2-1L384.3,418.7z"/>
			</g>
			<g>
				<path d="M379.5,404.9l-39.1,19.9c-2.4-2.6-5.5-4.6-9.1-5.7c-9.6-2.7-19.5,2.2-23.3,11.2c-2,3.2-4,13.9-20,21.4
					c-18.8,8.8-26.5,13.8-25.9,15.1c0.5,1.3,30.1-9.2,30.1-9.2s8.2-3.6,25.1-1.4c0,0,1.9,0.1,3.2,0.5c0.1,0,0.1,0,0.2,0.1
					c10.4,2.9,21.2-3.1,24.1-13.5c0.8-2.8,0.9-5.6,0.5-8.3l40.8-15.6L379.5,404.9z"/>
			</g>
		</g>
		<g>
			<path d="M427,390.4c4.5,9.7,2.8,21.1-4.3,29c-9.8,10.9-26.6,11.9-37.6,2.1c-2.7-2.4-4.9-5.3-6.4-8.6c-4.5-9.7-2.8-21.1,4.3-29
				c9.8-10.9,26.6-11.9,37.6-2.1C423.3,384.2,425.4,387.1,427,390.4z M383.1,410.9c1.2,2.7,3,5,5.2,7c9,8,22.8,7.2,30.8-1.7
				c5.8-6.5,7.2-15.8,3.5-23.8c-1.2-2.7-3-5-5.2-7c-9-8-22.8-7.2-30.8,1.7C380.8,393.6,379.4,403,383.1,410.9z"/>
		</g>
		<g>
			<ellipse transform="matrix(0.6662 -0.7457 0.7457 0.6662 -165.0716 434.4797)" cx="402.8" cy="401.7" rx="8" ry="8"/>
		</g>
	</g>
	<g class="st1">
		<rect x="399.8" y="192" width="2" height="17"/>
	</g>
	<g class="st1">
		
			<rect x="388.7" y="192.6" transform="matrix(0.9986 -5.235352e-02 5.235352e-02 0.9986 -9.9942 20.6768)" width="1.9" height="17"/>
	</g>
	<g class="st1">
		<rect x="378.4" y="193.4" transform="matrix(0.9945 -0.1046 0.1046 0.9945 -19.0462 40.7977)" width="1.9" height="17"/>
	</g>
	<g class="st1">
		<rect x="368" y="194.8" transform="matrix(0.9877 -0.1564 0.1564 0.9877 -27.2504 60.207)" width="1.9" height="17"/>
	</g>
	<g class="st1">
		<rect x="357.8" y="196.7" transform="matrix(0.9782 -0.2079 0.2079 0.9782 -34.809 79.0438)" width="1.9" height="17"/>
	</g>
	<g class="st1">
		<rect x="347.7" y="199.1" transform="matrix(0.9659 -0.2588 0.2588 0.9659 -41.8493 97.2984)" width="1.9" height="17"/>
	</g>
	<g class="st1">
		<rect x="337.7" y="202.1" transform="matrix(0.951 -0.309 0.309 0.951 -48.4909 114.9581)" width="1.9" height="17"/>
	</g>
	<g class="st1">
		<rect x="327.9" y="205.5" transform="matrix(0.9336 -0.3584 0.3584 0.9336 -54.8593 132.063)" width="1.9" height="17"/>
	</g>
	<g class="st1">
		<rect x="318.2" y="209.5" transform="matrix(0.9136 -0.4067 0.4067 0.9136 -61.068 148.6567)" width="1.9" height="17"/>
	</g>
	<g class="st1">
		<rect x="308.8" y="214" transform="matrix(0.891 -0.454 0.454 0.891 -67.2391 164.9125)" width="1.9" height="17"/>
	</g>
	<g class="st1">
		<rect x="299.7" y="218.9" transform="matrix(0.866 -0.5 0.5 0.866 -73.4404 180.7858)" width="1.9" height="17"/>
	</g>
	<g class="st1">
		<rect x="290.8" y="224.4" transform="matrix(0.8387 -0.5446 0.5446 0.8387 -79.7603 196.4455)" width="1.9" height="17"/>
	</g>
	<g class="st1">
		<rect x="282.2" y="230.3" transform="matrix(0.809 -0.5878 0.5878 0.809 -86.2617 212.0345)" width="1.9" height="17"/>
	</g>
	<g class="st1">
		<rect x="274" y="236.6" transform="matrix(0.7772 -0.6293 0.6293 0.7772 -92.9815 227.6044)" width="1.9" height="17"/>
	</g>
	<g class="st1">
		<rect x="266" y="243.4" transform="matrix(0.7431 -0.6691 0.6691 0.7431 -99.9496 243.3425)" width="1.9" height="17"/>
	</g>
	<g class="st1">
		<rect x="258.5" y="250.5" transform="matrix(0.7071 -0.7071 0.7071 0.7071 -107.1709 259.3148)" width="1.9" height="17"/>
	</g>
	<g class="st1">
		<rect x="251.3" y="258.1" transform="matrix(0.6691 -0.7432 0.7432 0.6691 -114.6361 275.6772)" width="1.9" height="17"/>
	</g>
	<g class="st1">
		<rect x="244.6" y="266" transform="matrix(0.6294 -0.7771 0.7771 0.6294 -122.317 292.5154)" width="1.9" height="17"/>
	</g>
	<g class="st1">
		<rect x="238.2" y="274.3" transform="matrix(0.5878 -0.809 0.809 0.5878 -130.1634 310.0152)" width="1.9" height="17"/>
	</g>
	<g class="st1">
		<rect x="232.3" y="282.8" transform="matrix(0.5446 -0.8387 0.8387 0.5446 -138.1085 328.2872)" width="1.9" height="17"/>
	</g>
	<g class="st1">
		<rect x="226.9" y="291.7" transform="matrix(0.5001 -0.866 0.866 0.5001 -146.0784 347.3525)" width="1.9" height="17"/>
	</g>
	<g class="st1">
		<rect x="221.9" y="300.9" transform="matrix(0.454 -0.891 0.891 0.454 -153.9603 367.4386)" width="1.9" height="17"/>
	</g>
	<g class="st1">
		<rect x="217.4" y="310.3" transform="matrix(0.4068 -0.9135 0.9135 0.4068 -161.649 388.5473)" width="1.9" height="17"/>
	</g>
	<g class="st1">
		<rect x="213.4" y="319.9" transform="matrix(0.3584 -0.9336 0.9336 0.3584 -169.0099 410.7989)" width="1.9" height="17"/>
	</g>
	<g class="st1">
		<rect x="209.9" y="329.7" transform="matrix(0.3091 -0.951 0.951 0.3091 -175.9123 434.1991)" width="1.9" height="17"/>
	</g>
	<g class="st1">
		<rect x="207" y="339.7" transform="matrix(0.2588 -0.9659 0.9659 0.2588 -182.1864 458.8694)" width="1.9" height="17"/>
	</g>
	<g class="st1">
		<rect x="204.5" y="349.8" transform="matrix(0.208 -0.9781 0.9781 0.208 -187.6961 484.7452)" width="1.9" height="17"/>
	</g>
	<g class="st1">
		<rect x="202.6" y="360" transform="matrix(0.1565 -0.9877 0.9877 0.1565 -192.2485 511.9179)" width="1.9" height="17"/>
	</g>
	<g class="st1">
		<rect x="201.3" y="370.3" transform="matrix(0.1046 -0.9945 0.9945 0.1046 -195.6894 540.319)" width="1.9" height="17"/>
	</g>
	<g class="st1">
		
			<rect x="200.5" y="380.7" transform="matrix(5.238598e-02 -0.9986 0.9986 5.238598e-02 -197.8326 569.9452)" width="1.9" height="17"/>
	</g>
	<g class="st1">
		<rect x="192.8" y="398" width="16" height="2"/>
	</g>
	<g class="st1">
		
			<rect x="192.9" y="409.3" transform="matrix(0.9986 -5.226946e-02 5.226946e-02 0.9986 -21.1672 11.0868)" width="17" height="1.9"/>
	</g>
	<g class="st1">
		<rect x="193.7" y="419.7" transform="matrix(0.9945 -0.1046 0.1046 0.9945 -42.8841 23.4562)" width="17" height="1.9"/>
	</g>
	<g class="st1">
		<rect x="195.1" y="430" transform="matrix(0.9877 -0.1564 0.1564 0.9877 -64.8943 37.1422)" width="17" height="1.9"/>
	</g>
	<g class="st1">
		<rect x="197" y="440.2" transform="matrix(0.9782 -0.2077 0.2077 0.9782 -87.1341 52.2851)" width="17" height="1.9"/>
	</g>
	<g class="st1">
		<rect x="199.4" y="450.4" transform="matrix(0.966 -0.2585 0.2585 0.966 -109.6049 69.093)" width="17" height="1.9"/>
	</g>
	<g class="st1">
		<rect x="202.4" y="460.3" transform="matrix(0.9511 -0.3089 0.3089 0.9511 -132.17 87.6919)" width="17" height="1.9"/>
	</g>
	<g class="st1">
		<rect x="205.9" y="470.1" transform="matrix(0.9336 -0.3583 0.3583 0.9336 -154.5558 108.0757)" width="17" height="1.9"/>
	</g>
	<g class="st1">
		<rect x="209.9" y="479.8" transform="matrix(0.9134 -0.407 0.407 0.9134 -176.7475 130.483)" width="17" height="1.9"/>
	</g>
	<g class="st1">
		<rect x="214.3" y="489.2" transform="matrix(0.8912 -0.4536 0.4536 0.8912 -198.0634 154.3902)" width="17" height="1.9"/>
	</g>
	<g class="st1">
		<rect x="219.3" y="498.3" transform="matrix(0.866 -0.5001 0.5001 0.866 -219.1356 180.8309)" width="17" height="1.9"/>
	</g>
	<g class="st1">
		<rect x="224.8" y="507.2" transform="matrix(0.8388 -0.5444 0.5444 0.8388 -239.0205 208.8621)" width="17" height="1.9"/>
	</g>
	<g class="st1">
		<rect x="230.7" y="515.8" transform="matrix(0.809 -0.5878 0.5878 0.809 -258.0354 239.2473)" width="17" height="1.9"/>
	</g>
	<g class="st1">
		<rect x="237" y="524" transform="matrix(0.777 -0.6296 0.6296 0.777 -275.7384 271.6456)" width="17" height="1.9"/>
	</g>
	<g class="st1">
		<rect x="243.8" y="531.9" transform="matrix(0.7434 -0.6689 0.6689 0.7434 -291.6947 305.4893)" width="17" height="1.9"/>
	</g>
	<g class="st1">
		<rect x="250.9" y="539.5" transform="matrix(0.7075 -0.7067 0.7067 0.7075 -306.0487 341.4376)" width="17" height="1.9"/>
	</g>
	<g class="st1">
		<rect x="258.5" y="546.6" transform="matrix(0.6694 -0.7429 0.7429 0.6694 -318.5424 379.3935)" width="17" height="1.9"/>
	</g>
	<g class="st1">
		<rect x="266.4" y="553.4" transform="matrix(0.6292 -0.7773 0.7773 0.6292 -328.9324 419.2522)" width="17" height="1.9"/>
	</g>
	<g class="st1">
		<rect x="274.7" y="559.7" transform="matrix(0.5876 -0.8092 0.8092 0.5876 -336.8987 460.3748)" width="17" height="1.9"/>
	</g>
	<g class="st1">
		<rect x="283.3" y="565.6" transform="matrix(0.5444 -0.8388 0.8388 0.5444 -342.3322 502.8656)" width="17" height="1.9"/>
	</g>
	<g class="st1">
		<rect x="292.2" y="571.1" transform="matrix(0.4998 -0.8662 0.8662 0.4998 -345.0627 546.5427)" width="17" height="1.9"/>
	</g>
	<g class="st1">
		<rect x="301.3" y="576" transform="matrix(0.4543 -0.8908 0.8908 0.4543 -344.9432 590.8055)" width="17" height="1.9"/>
	</g>
	<g class="st1">
		<rect x="310.7" y="580.5" transform="matrix(0.406 -0.9139 0.9139 0.406 -341.7731 637.0728)" width="17" height="1.9"/>
	</g>
	<g class="st1">
		<rect x="320.3" y="584.5" transform="matrix(0.3583 -0.9336 0.9336 0.3583 -335.5648 682.6329)" width="17" height="1.9"/>
	</g>
	<g class="st1">
		<rect x="330.1" y="588" transform="matrix(0.3091 -0.951 0.951 0.3091 -326.0987 728.9418)" width="17" height="1.9"/>
	</g>
	<g class="st1">
		<rect x="340.1" y="590.9" transform="matrix(0.2589 -0.9659 0.9659 0.2589 -313.3117 775.3617)" width="17" height="1.9"/>
	</g>
	<g class="st1">
		<rect x="350.3" y="593.3" transform="matrix(0.2082 -0.9781 0.9781 0.2082 -297.194 821.4608)" width="17" height="1.9"/>
	</g>
	<g class="st1">
		<rect x="360.5" y="595.2" transform="matrix(0.1569 -0.9876 0.9876 0.1569 -277.6911 867.0627)" width="17" height="1.9"/>
	</g>
	<g class="st1">
		<rect x="370.8" y="596.6" transform="matrix(0.1046 -0.9945 0.9945 0.1046 -254.6036 912.2748)" width="17" height="1.9"/>
	</g>
	<g class="st1">
		
			<rect x="381.2" y="597.4" transform="matrix(5.228358e-02 -0.9986 0.9986 5.228358e-02 -228.2016 956.2131)" width="17" height="1.9"/>
	</g>
	<g class="st1">
		<rect x="399.8" y="591" width="2" height="16"/>
	</g>
	<g class="st1">
		
			<rect x="409.6" y="590" transform="matrix(0.9986 -5.235814e-02 5.235814e-02 0.9986 -30.7747 22.3143)" width="1.9" height="17"/>
	</g>
	<g class="st1">
		<rect x="420" y="589.2" transform="matrix(0.9945 -0.1045 0.1045 0.9945 -60.17 47.2688)" width="1.9" height="17"/>
	</g>
	<g class="st1">
		<rect x="430.3" y="587.9" transform="matrix(0.9877 -0.1564 0.1564 0.9877 -87.9448 74.7674)" width="1.9" height="17"/>
	</g>
	<g class="st1">
		<rect x="440.5" y="585.9" transform="matrix(0.9782 -0.2078 0.2078 0.9782 -113.8923 104.7211)" width="1.9" height="17"/>
	</g>
	<g class="st1">
		<rect x="450.7" y="583.5" transform="matrix(0.9659 -0.2589 0.2589 0.9659 -137.8665 137.1027)" width="1.9" height="17"/>
	</g>
	<g class="st1">
		<rect x="460.7" y="580.5" transform="matrix(0.9511 -0.309 0.309 0.9511 -159.4229 171.4646)" width="1.9" height="17"/>
	</g>
	<g class="st1">
		<rect x="470.5" y="577.1" transform="matrix(0.9336 -0.3583 0.3583 0.9336 -178.522 207.8237)" width="1.9" height="17"/>
	</g>
	<g class="st1">
		<rect x="480.1" y="573.1" transform="matrix(0.9136 -0.4067 0.4067 0.9136 -194.9363 245.9136)" width="1.9" height="17"/>
	</g>
	<g class="st1">
		<rect x="489.5" y="568.6" transform="matrix(0.891 -0.4541 0.4541 0.891 -208.5536 285.6322)" width="1.9" height="17"/>
	</g>
	<g class="st1">
		<rect x="498.7" y="563.6" transform="matrix(0.866 -0.5001 0.5001 0.866 -219.121 326.4961)" width="1.9" height="17"/>
	</g>
	<g class="st1">
		<rect x="507.6" y="558.1" transform="matrix(0.8387 -0.5446 0.5446 0.8387 -226.5757 368.3675)" width="1.9" height="17"/>
	</g>
	<g class="st1">
		<rect x="516.1" y="552.2" transform="matrix(0.809 -0.5878 0.5878 0.809 -230.8357 411.0497)" width="1.9" height="17"/>
	</g>
	<g class="st1">
		<rect x="524.4" y="545.9" transform="matrix(0.7772 -0.6293 0.6293 0.7772 -231.8016 454.1507)" width="1.9" height="17"/>
	</g>
	<g class="st1">
		<rect x="532.3" y="539.1" transform="matrix(0.7431 -0.6691 0.6691 0.7431 -229.4451 497.507)" width="1.9" height="17"/>
	</g>
	<g class="st1">
		<rect x="539.9" y="531.9" transform="matrix(0.7071 -0.7071 0.7071 0.7071 -223.7322 540.7209)" width="1.9" height="17"/>
	</g>
	<g class="st1">
		<rect x="547.1" y="524.4" transform="matrix(0.6692 -0.7431 0.7431 0.6692 -214.6775 583.517)" width="1.9" height="17"/>
	</g>
	<g class="st1">
		<rect x="553.8" y="516.4" transform="matrix(0.6293 -0.7772 0.7772 0.6293 -202.3006 625.769)" width="1.9" height="17"/>
	</g>
	<g class="st1">
		<rect x="560.2" y="508.2" transform="matrix(0.5878 -0.809 0.809 0.5878 -186.6834 666.9485)" width="1.9" height="17"/>
	</g>
	<g class="st1">
		<rect x="566.1" y="499.6" transform="matrix(0.5446 -0.8387 0.8387 0.5446 -167.8945 706.9333)" width="1.9" height="17"/>
	</g>
	<g class="st1">
		<rect x="571.5" y="490.7" transform="matrix(0.5 -0.866 0.866 0.5 -146.0691 745.3634)" width="1.9" height="17"/>
	</g>
	<g class="st1">
		<rect x="576.5" y="481.5" transform="matrix(0.454 -0.891 0.891 0.454 -121.3204 782.0624)" width="1.9" height="17"/>
	</g>
	<g class="st1">
		<rect x="581" y="472.1" transform="matrix(0.4066 -0.9136 0.9136 0.4066 -93.7931 816.8027)" width="1.9" height="17"/>
	</g>
	<g class="st1">
		<rect x="585" y="462.5" transform="matrix(0.3583 -0.9336 0.9336 0.3583 -63.7574 849.1866)" width="1.9" height="17"/>
	</g>
	<g class="st1">
		<rect x="588.4" y="452.7" transform="matrix(0.3089 -0.9511 0.9511 0.3089 -31.2902 879.2354)" width="1.9" height="17"/>
	</g>
	<g class="st1">
		<rect x="591.4" y="442.7" transform="matrix(0.2588 -0.9659 0.9659 0.2588 3.2451 906.5362)" width="1.9" height="17"/>
	</g>
	<g class="st1">
		<rect x="593.8" y="432.5" transform="matrix(0.2079 -0.9782 0.9782 0.2079 39.7426 931.1107)" width="1.9" height="17"/>
	</g>
	<g class="st1">
		<rect x="595.7" y="422.3" transform="matrix(0.1564 -0.9877 0.9877 0.1564 77.8616 952.6957)" width="1.9" height="17"/>
	</g>
	<g class="st1">
		<rect x="597.1" y="411.9" transform="matrix(0.1045 -0.9945 0.9945 0.1045 117.364 971.212)" width="1.9" height="17"/>
	</g>
	<g class="st1">
		
			<rect x="597.9" y="401.6" transform="matrix(5.234921e-02 -0.9986 0.9986 5.234921e-02 157.9907 986.5723)" width="1.9" height="17"/>
	</g>
	<g class="st1">
		<rect x="590.8" y="398" width="17" height="2"/>
	</g>
	<g class="st1">
		
			<rect x="590.3" y="388.5" transform="matrix(0.9986 -5.228330e-02 5.228330e-02 0.9986 -19.5403 31.8399)" width="17" height="1.9"/>
	</g>
	<g class="st1">
		<rect x="589.5" y="378.1" transform="matrix(0.9946 -0.1041 0.1041 0.9946 -36.2052 64.3079)" width="17" height="1.9"/>
	</g>
	<g class="st1">
		<rect x="588.1" y="367.7" transform="matrix(0.9876 -0.1569 0.1569 0.9876 -50.4504 98.1652)" width="17" height="1.9"/>
	</g>
	<g class="st1">
		<rect x="586.3" y="357.5" transform="matrix(0.9781 -0.2081 0.2081 0.9781 -61.561 131.5903)" width="17" height="1.9"/>
	</g>
	<g class="st1">
		<rect x="583.8" y="347.4" transform="matrix(0.9661 -0.2583 0.2583 0.9661 -69.8699 164.8363)" width="17" height="1.9"/>
	</g>
	<g class="st1">
		<rect x="580.9" y="337.4" transform="matrix(0.951 -0.3091 0.3091 0.951 -75.7013 198.7111)" width="17" height="1.9"/>
	</g>
	<g class="st1">
		<rect x="577.4" y="327.5" transform="matrix(0.9335 -0.3587 0.3587 0.9335 -78.8329 232.0099)" width="17" height="1.9"/>
	</g>
	<g class="st1">
		<rect x="573.4" y="317.9" transform="matrix(0.9139 -0.4059 0.4059 0.9139 -79.3281 263.666)" width="17" height="1.9"/>
	</g>
	<g class="st1">
		<rect x="568.9" y="308.5" transform="matrix(0.891 -0.4541 0.4541 0.891 -77.5451 295.9239)" width="17" height="1.9"/>
	</g>
	<g class="st1">
		<rect x="564" y="299.3" transform="matrix(0.8659 -0.5002 0.5002 0.8659 -73.4357 326.577)" width="17" height="1.9"/>
	</g>
	<g class="st1">
		<rect x="558.5" y="290.4" transform="matrix(0.8389 -0.5443 0.5443 0.8389 -67.2487 355.5527)" width="17" height="1.9"/>
	</g>
	<g class="st1">
		<rect x="552.6" y="281.8" transform="matrix(0.8092 -0.5875 0.5875 0.8092 -59.0853 383.6364)" width="17" height="1.9"/>
	</g>
	<g class="st1">
		<rect x="546.3" y="273.6" transform="matrix(0.7773 -0.6292 0.6292 0.7773 -49.1519 410.1864)" width="17" height="1.9"/>
	</g>
	<g class="st1">
		<rect x="539.5" y="265.6" transform="matrix(0.7434 -0.6689 0.6689 0.7434 -37.6846 434.9466)" width="17" height="1.9"/>
	</g>
	<g class="st1">
		<rect x="532.3" y="258.1" transform="matrix(0.7071 -0.7071 0.7071 0.7071 -24.7414 458.3167)" width="17" height="1.9"/>
	</g>
	<g class="st1">
		<rect x="524.8" y="250.9" transform="matrix(0.6689 -0.7434 0.7434 0.6689 -10.6355 479.8113)" width="17" height="1.9"/>
	</g>
	<g class="st1">
		<rect x="516.9" y="244.1" transform="matrix(0.6297 -0.7768 0.7768 0.6297 4.1452 498.8386)" width="17" height="1.9"/>
	</g>
	<g class="st1">
		<rect x="508.6" y="237.8" transform="matrix(0.5878 -0.809 0.809 0.5878 20.0264 516.7469)" width="17" height="1.9"/>
	</g>
	<g class="st1">
		<rect x="500" y="231.9" transform="matrix(0.5446 -0.8387 0.8387 0.5446 36.3085 532.4982)" width="17" height="1.9"/>
	</g>
	<g class="st1">
		<rect x="491.1" y="226.4" transform="matrix(0.5 -0.866 0.866 0.5 52.8911 546.3432)" width="17" height="1.9"/>
	</g>
	<g class="st1">
		<rect x="482" y="221.4" transform="matrix(0.454 -0.891 0.891 0.454 69.63 558.4053)" width="17" height="1.9"/>
	</g>
	<g class="st1">
		<rect x="472.6" y="216.9" transform="matrix(0.4068 -0.9135 0.9135 0.4068 86.3082 568.7036)" width="17" height="1.9"/>
	</g>
	<g class="st1">
		<rect x="462.9" y="213" transform="matrix(0.3587 -0.9334 0.9334 0.3587 102.6522 577.2233)" width="17" height="1.9"/>
	</g>
	<g class="st1">
		<rect x="453.1" y="209.5" transform="matrix(0.3092 -0.951 0.951 0.3092 118.7711 584.3412)" width="17" height="1.9"/>
	</g>
	<g class="st1">
		<rect x="443.1" y="206.5" transform="matrix(0.2592 -0.9658 0.9658 0.2592 134.1979 589.8625)" width="17" height="1.9"/>
	</g>
	<g class="st1">
		<rect x="433" y="204.1" transform="matrix(0.2084 -0.978 0.978 0.2084 148.9648 594.0762)" width="17" height="1.9"/>
	</g>
	<g class="st1">
		<rect x="422.8" y="202.2" transform="matrix(0.1567 -0.9877 0.9877 0.1567 163.0829 597.2036)" width="17" height="1.9"/>
	</g>
	<g class="st1">
		<rect x="412.4" y="200.8" transform="matrix(0.1051 -0.9945 0.9945 0.1051 176.0407 599.1108)" width="17" height="1.9"/>
	</g>
	<g class="st1">
		<rect x="402" y="200" transform="matrix(5.282578e-02 -0.9986 0.9986 5.282578e-02 188.196 600.2489)" width="17" height="1.9"/>
	</g>
</g>
<g id="pointer">
	<g id="pointer_1_">
		<g>
			<g>
				<path class="st2" d="M380,403.3l7.6,16.7l-41.1,15.7c0.3,2.7,0.1,5.3-0.7,7.9c-3.1,11-14.6,17.4-25.6,14.3l-0.1,0
					c-1.2-0.3-3-0.4-3-0.4c-16.4-2.1-24.4,1.3-24.5,1.3c-30.6,10.9-31.1,9.8-31.7,8.6c-0.5-1.2-1.4-3.6,26.5-16.7
					c12.8-6,16.4-14.1,18.3-18.5c0.4-1,0.8-1.7,1.1-2.4c4.1-9.6,14.7-14.7,24.7-11.8c3.4,1,6.5,2.8,9,5.3L380,403.3z M384.3,418.7
					l-5.5-12.1L340,426.3l-0.6-0.7c-2.3-2.5-5.3-4.4-8.5-5.3c-8.9-2.5-18.3,2-21.9,10.5l-0.1,0.2c-0.3,0.5-0.6,1.3-1,2.1
					c-2,4.7-5.8,13.3-19.5,19.7c-14.5,6.8-20.7,10.5-23.4,12.4c5.2-1.4,16.5-5.1,26.6-8.7c0.3-0.1,8.6-3.7,25.6-1.5
					c0,0,1.9,0.1,3.3,0.5l0.2,0.1c9.7,2.8,19.9-2.9,22.6-12.6c0.7-2.5,0.9-5.2,0.5-7.8l-0.2-1L384.3,418.7z"/>
			</g>
			<g>
				<path d="M379.5,404.9l-39.1,19.9c-2.4-2.6-5.5-4.6-9.1-5.7c-9.6-2.7-19.5,2.2-23.3,11.2c-2,3.2-4,13.9-20,21.4
					c-18.8,8.8-26.5,13.8-25.9,15.1c0.5,1.3,30.1-9.2,30.1-9.2s8.2-3.6,25.1-1.4c0,0,1.9,0.1,3.2,0.5c0.1,0,0.1,0,0.2,0.1
					c10.4,2.9,21.2-3.1,24.1-13.5c0.8-2.8,0.9-5.6,0.5-8.3l40.8-15.6L379.5,404.9z"/>
			</g>
		</g>
		<g>
			<path class="st3" d="M427,390.4c4.5,9.7,2.8,21.1-4.3,29c-9.8,10.9-26.6,11.9-37.6,2.1c-2.7-2.4-4.9-5.3-6.4-8.6
				c-4.5-9.7-2.8-21.1,4.3-29c9.8-10.9,26.6-11.9,37.6-2.1C423.3,384.2,425.4,387.1,427,390.4z M383.1,410.9c1.2,2.7,3,5,5.2,7
				c9,8,22.8,7.2,30.8-1.7c5.8-6.5,7.2-15.8,3.5-23.8c-1.2-2.7-3-5-5.2-7c-9-8-22.8-7.2-30.8,1.7C380.8,393.6,379.4,403,383.1,410.9
				z"/>
		</g>
		<g>
			<ellipse transform="matrix(0.6662 -0.7457 0.7457 0.6662 -165.0716 434.4797)" cx="402.8" cy="401.7" rx="8" ry="8"/>
		</g>
	</g>
</g>
</svg>
