<?xml version="1.0" encoding="utf-8"?>
<!-- Generator: Adobe Illustrator 21.0.0, SVG Export Plug-In . SVG Version: 6.00 Build 0)  -->
<svg version="1.1" xmlns="http://www.w3.org/2000/svg" xmlns:xlink="http://www.w3.org/1999/xlink" x="0px" y="0px"
	 viewBox="0 0 321 568" style="enable-background:new 0 0 321 568;" xml:space="preserve">
<style type="text/css">
	.st0{fill:#020000;}
	.st1{display:none;fill:#020000;}
	.st2{fill:#FCFCFC;}
</style>
<g id="chicken" class="map-resto-icon">
	<path class="st0" d="M258.1,435.6c0.1-1.2-0.4-2.5-1.4-3.4c-1.7-1.6-4.4-1.4-6,0.3c-1.6,1.7-1.4,4.4,0.3,6c0.3,0.3,0.6,0.5,0.9,0.6
		l-11.8,13.1c-7.6-4-19-0.6-27.1,8.4c-9.1,10.2-10.6,23.7-3.3,30.3c7.3,6.5,20.6,3.6,29.7-6.6c8.2-9.1,10.2-20.9,5.3-28l11.7-13
		c1.7,1.1,4,0.8,5.4-0.8c1.6-1.7,1.4-4.4-0.3-6C260.7,435.7,259.4,435.4,258.1,435.6z M220.1,490.5c-0.6,0.7-1.7,0.7-2.5,0
		c-0.8-0.7-0.9-1.8-0.3-2.4c0.6-0.7,1.7-0.7,2.5,0C220.6,488.7,220.7,489.8,220.1,490.5z M225.5,490.4c-0.6,0.6-1.6,0.6-2.3,0
		c-0.7-0.6-0.8-1.7-0.3-2.3c0.6-0.6,1.6-0.6,2.3,0S226.1,489.8,225.5,490.4z M222.4,485.2c-0.6,0.6-1.6,0.6-2.3,0
		c-0.7-0.6-0.8-1.7-0.3-2.3c0.6-0.6,1.6-0.6,2.3,0C222.8,483.6,223,484.6,222.4,485.2z"/>
</g>
<g id="pizza" class="map-resto-icon">
	<path d="M189.7,296.5c-9.4,5-22.8,25.6-23.4,44.7c-0.1,4.1,2,7.9,6.2,7.8l53.3,3.8c4.8-0.1,7.8-5.4,5.2-9.5
		c-7.2-11.8-25.9-35.7-32-45.4C197.1,294.6,193.1,294.7,189.7,296.5z M222.1,345.3c0,0.8-0.6,1.5-1.5,1.6c-0.8,0-1.5-0.6-1.6-1.5
		c0-0.8,0.6-1.5,1.5-1.6C221.4,343.8,222.1,344.5,222.1,345.3z M209.4,342.5c0,1.7-1.3,3.2-3.1,3.2c-1.7,0-3.2-1.3-3.2-3.1
		c0-1.7,1.3-3.2,3.1-3.2C207.9,339.3,209.3,340.7,209.4,342.5z M188.8,345.3c-2.9,0.1-5.4-2.2-5.5-5.2c-0.1-2.9,2.2-5.4,5.2-5.5
		c2.9-0.1,5.4,2.2,5.5,5.2C194,342.8,191.7,345.2,188.8,345.3z M217.5,331.7c0.1,3-2.3,5.4-5.2,5.5c-3,0.1-5.4-2.3-5.5-5.2
		c-0.1-3,2.3-5.4,5.2-5.5C214.9,326.4,217.4,328.8,217.5,331.7z M197.2,326.5c0,1-0.8,1.9-1.8,1.9c-1,0-1.9-0.8-1.9-1.8
		c0-1,0.8-1.9,1.8-1.9C196.4,324.7,197.2,325.5,197.2,326.5z M205.8,319c0,1.5-1.2,2.8-2.7,2.8c-1.5,0-2.8-1.2-2.8-2.7
		c0-1.5,1.2-2.8,2.7-2.8C204.5,316.3,205.8,317.5,205.8,319z M198.4,303c0,0.1,0,0.1,0,0.2c0,1-0.7,1.8-1.7,2
		c-1.9,0.2-5.8,3.1-10.8,10.7c-6.7,10.1-11.6,22.5-10.4,26.6c0.3,1-0.3,2.1-1.3,2.4c-1,0.3-2.1-0.3-2.4-1.3
		c-1.9-6.4,5.2-21.3,10.9-29.8c3.6-5.4,8.8-11.8,13.6-12.4C197.3,301.2,198.2,302,198.4,303z"/>
</g>
<g id="toast" class="map-resto-icon">
	<path class="st1" d="M160.5,404.6c0,3.9-1.5,7.4-4,10v25.9c0,3.9-3.2,7.1-7.1,7.1h-29c-3.9,0-7.1-3.2-7.1-7.1v-20.9
		c-3.3-2.6-5.4-6.7-5.4-11.2c0-7.9,6.4-14.4,14.4-14.4c4.2,0,8.1,1.8,10.7,4.8c2.2-5.1,7.3-8.6,13.2-8.6
		C154.1,390.2,160.5,396.6,160.5,404.6z"/>
	<path class="st0" d="M146.1,390.2c-5.9,0-11,3.5-13.2,8.6c-2.6-2.9-6.4-4.8-10.7-4.8c-7.9,0-14.4,6.4-14.4,14.4
		c0,4.5,2.1,8.6,5.4,11.2v20.9c0,3.9,3.2,7.1,7.1,7.1h29c3.9,0,7.1-3.2,7.1-7.1v-25.9c2.5-2.6,4-6.1,4-10
		C160.5,396.6,154.1,390.2,146.1,390.2z M121.1,440.5c0,0.5-0.4,0.9-0.9,0.9s-0.9-0.4-0.9-0.9V435c0-0.5,0.4-0.9,0.9-0.9
		s0.9,0.4,0.9,0.9V440.5z M121.1,427.2c0,0.5-0.4,0.9-0.9,0.9s-0.9-0.4-0.9-0.9v-22.8c0-0.5,0.4-0.9,0.9-0.9s0.9,0.4,0.9,0.9V427.2z
		 M126.4,438.6c0,0.5-0.4,0.9-0.9,0.9s-0.9-0.4-0.9-0.9v-18.9c0-0.5,0.4-0.9,0.9-0.9s0.9,0.4,0.9,0.9V438.6z M126.4,411.9
		c0,0.5-0.4,0.9-0.9,0.9s-0.9-0.4-0.9-0.9v-9.7c0-0.5,0.4-0.9,0.9-0.9s0.9,0.4,0.9,0.9V411.9z"/>
</g>
<g id="fish" class="map-resto-icon">
	<path class="st0" d="M152.7,211.4c-0.5,0.3,2.8-2.2,4.1-3.5c6.2-6.2,8.8-13.7,5.9-16.6c-2.9-2.9-10.4-0.3-16.6,5.9
		c-1.6,1.6-3,3.3-4.1,5c-6.6-3.5-16.1-5.6-26.7-5.6c-20,0-36.1,7.7-36.1,17.2c0,9.5,16.2,17.2,36.1,17.2c12,0,22.7-2.8,29.3-7.1
		c0.5,0.6,1,1.1,1.5,1.6c6.2,6.2,13.6,8.8,16.6,5.9c2.9-2.9,0.3-10.4-5.9-16.6C155.5,213.5,154.1,212.3,152.7,211.4z M97.7,215.4
		c-2,0-3.7-1.6-3.7-3.7c0-2,1.6-3.7,3.7-3.7c2,0,3.7,1.6,3.7,3.7C101.4,213.8,99.7,215.4,97.7,215.4z M118.1,217.9
		c0.3,3.1-0.5,6.9-3.5,7.8c-0.1,0-0.1,0-0.2,0c-0.3,0-0.6-0.2-0.7-0.5c-0.1-0.3,0.1-0.7,0.5-0.8c2.1-0.6,2.7-3.6,2.5-6.4
		c-0.2-2.7-1.3-4.9-2.4-5.1c0,0-0.1,0-0.1,0c0,0-0.1,0-0.1,0c-0.1,0-0.1,0-0.1-0.1c-0.1,0-0.1-0.1-0.2-0.2c0,0-0.1-0.1-0.1-0.1
		c0,0,0,0,0-0.1c0-0.1,0-0.1,0-0.2c0,0,0-0.1,0-0.1c0-0.3,0.2-0.5,0.4-0.5c0,0,0,0,0,0c2.1-0.6,2.7-3.6,2.5-6.4
		c-0.2-2.7-1.3-4.9-2.4-5.1c-0.4,0-0.6-0.4-0.6-0.7c0-0.4,0.4-0.6,0.7-0.6c2.1,0.2,3.3,3.3,3.6,6.3c0.2,2.5-0.3,5.7-2.2,7.1
		C117.2,213.4,117.9,215.7,118.1,217.9z M128.6,222.3c0.2,2.2-0.4,5-2.5,5.6c0,0-0.1,0-0.1,0c-0.2,0-0.4-0.1-0.5-0.3
		c-0.1-0.3,0.1-0.5,0.3-0.6c1.5-0.4,2-2.6,1.8-4.6c-0.2-2-0.9-3.5-1.7-3.6c-0.3,0-0.5-0.3-0.4-0.5c0,0,0-0.1,0-0.1c0,0,0,0,0,0
		c-0.1-0.3,0.1-0.5,0.3-0.6c1.5-0.4,2-2.6,1.8-4.6c-0.2-1.9-0.9-3.5-1.7-3.6c0,0,0,0-0.1,0h0c-0.1,0-0.1,0-0.2-0.1
		c-0.1,0-0.2-0.1-0.2-0.2c0-0.1,0-0.1,0-0.2c0,0,0-0.1,0-0.1c0,0,0-0.1,0.1-0.1c0,0,0,0,0,0c0,0,0,0,0.1-0.1c0,0,0,0,0.1,0
		c0,0,0,0,0.1,0l0,0c1.5-0.4,2-2.6,1.8-4.6c-0.2-1.9-0.9-3.5-1.7-3.6c-0.3,0-0.5-0.3-0.4-0.5c0-0.3,0.3-0.5,0.5-0.4
		c1.5,0.2,2.4,2.4,2.6,4.5c0.2,1.8-0.2,4.1-1.6,5.1c0.9,0.8,1.4,2.4,1.6,4c0.2,1.9-0.2,4.3-1.8,5.3
		C127.8,218.8,128.4,220.6,128.6,222.3z"/>
	<path class="st2" d="M125.7,209.2c-0.1,0-0.2-0.1-0.2-0.2C125.5,209,125.6,209.1,125.7,209.2z"/>
	<path class="st2" d="M125.4,208.7C125.4,208.7,125.5,208.6,125.4,208.7C125.5,208.7,125.4,208.7,125.4,208.7L125.4,208.7z"/>
</g>
<g id="farvala" class="map-resto-icon">
	<g>
		<path class="st0" d="M134.2,107.2c-0.5-2.3-3,0.4-3.6-2.7c-0.7-3.1,3.3-2.4,2.3-4.1c-0.9-1.7-4-0.3-4.5-1.6
			c-0.5-1.2,3-3.2,1.9-4.9c-1.2-1.7-3.8,0.9-4.9-0.3c-1.1-1.1,2.3-4.1,1.1-5.2c-1.1-1.1-4.4,1.1-5.2,0.4c-0.8-0.7,2.5-4.6,0.4-5.8
			c-2.1-1.2-4.8,1.4-7.1,3.5c-2.3,2-6.3,6.9-9.1,12.2c-2.8,5.3-5.5,6.8-6.5,6.9c-1.1,0.1-3.9-0.1-6.1-2.9
			C86.5,95,74.9,91.1,72.8,91.2c0,0-1.5-0.1-2.5,2.6c-0.9,2.7,3.4,3.2,3.3,4.8c-0.1,1.6-5.4-0.7-5.8,1c-0.3,1.8,2.6,3.2,2.1,5.5
			c-0.4,2.3-3.5-0.3-3.7,1.6c-0.1,1.9,2.3,1.9,2.6,3.4c0.3,1.5-4,1.8-3.7,3.4c0.3,1.6,4.1,2.2,4.4,3.7s-3.4,2-3.1,3.5
			c0.3,1.5,3.9,1.6,4.4,3.1c0.4,1.4-2.6,1.7-1.9,3.6c0.7,1.9,4.6,1,5.2,2.3c0.6,1.3-1.9,1.9-1,3.4c0.9,1.5,4.2-1.1,5.1,0.2
			s-2.8,2.9-1.2,4.8c1.6,2,6.7,0.7,13.5-5.5c6.8-6.2,7.4-13.4,11.6-14.9c4.2-1.5,5,3.9,11.3,8.4c6.3,4.5,16.9,4.3,17.8,2.1
			c0.8-2.2-2.1-3.2-2.3-4.3c-0.2-1.1,4.1-0.4,4.1-2.8c0-2.5-2.3-0.5-2.3-2.8c0-2.3,3.6-1.5,3.2-3.5c-0.4-2-2.5-1.3-2.9-3.6
			C130.7,108.9,134.8,109.4,134.2,107.2z M82,118.8c-0.6-3.7,6.9-5.1,13.9-3.8C93.8,118.6,82.5,122.5,82,118.8z M82.9,106.4
			c0.5-3.1,8.2,0.7,12,3.8C87.4,107.9,82.4,109.5,82.9,106.4z M114.4,101.5c1.5,2.7-3.7,3-9.9,7.7C107,105,112.8,98.8,114.4,101.5z
			 M119.4,115.6c-0.7,3.6-11.8-0.5-13.8-4.1C112.6,110.3,120.1,112,119.4,115.6z"/>
	</g>
</g>
</svg>
